<svg xmlns="http://www.w3.org/2000/svg" width="649.8765258789062" height="831.2528076171875" viewBox="0.06767779588699341 0.3912315368652344 649.8765258789062 831.2528076171875" version="1.1" xml:space="preserve">
  <g>
    <g id="#000000ff">
      <path fill="#000000" opacity="1.00" d="M 313.68 2.62 C 318.38 0.15 323.84 1.10 328.94 0.95 C 335.48 0.68 341.60 5.12 343.98 11.10 C 352.15 30.68 361.35 49.79 369.78 69.25 C 379.07 91.17 389.30 112.67 398.66 134.55 C 429.97 204.55 460.92 274.69 492.14 344.73 C 501.56 366.57 511.84 388.05 521.01 410.01 C 524.63 417.76 527.83 425.71 531.67 433.36 C 538.71 449.31 545.53 465.36 552.74 481.24 C 561.38 499.78 569.03 518.77 577.73 537.29 C 599.92 587.40 622.29 637.45 644.41 687.59 C 647.22 693.31 650.31 699.38 649.22 705.98 C 649.04 711.79 644.50 715.89 640.39 719.39 C 636.96 722.31 632.16 721.75 627.98 721.77 C 623.72 721.83 620.10 719.31 616.19 718.00 C 604.44 712.60 592.35 707.97 580.51 702.78 C 558.92 694.06 537.70 684.45 516.08 675.82 C 508.86 672.23 501.12 669.83 493.85 666.36 C 497.76 673.23 501.22 680.38 504.33 687.66 C 507.14 693.46 510.22 699.13 512.94 704.98 C 516.39 713.88 521.50 722.02 525.01 730.90 C 528.25 737.84 532.02 744.54 535.23 751.51 C 538.65 760.19 543.61 768.16 547.03 776.85 C 550.48 784.46 554.83 791.65 557.93 799.43 C 559.67 803.51 562.53 807.34 562.66 811.93 C 562.73 815.31 562.99 818.96 561.27 822.03 C 558.59 827.30 552.97 831.24 546.96 831.12 C 539.13 831.31 532.40 826.70 525.57 823.53 C 511.56 815.66 496.75 809.31 482.85 801.25 C 471.22 795.52 459.59 789.76 448.04 783.85 C 434.69 775.87 420.04 770.28 406.68 762.31 C 397.23 757.45 387.73 752.69 378.18 748.05 C 363.89 740.03 349.04 733.07 334.46 725.61 C 331.41 723.75 328.27 722.03 325.00 720.58 C 321.72 722.03 318.58 723.75 315.52 725.62 C 300.93 733.08 286.07 740.05 271.77 748.07 C 260.10 753.89 248.24 759.38 236.97 765.95 C 227.82 770.56 218.60 775.04 209.43 779.61 C 195.47 787.65 180.79 794.34 166.44 801.63 C 157.53 806.85 148.14 811.19 138.96 815.92 C 129.91 820.15 121.47 825.64 112.17 829.34 C 108.12 831.02 103.60 831.65 99.29 830.70 C 92.09 828.79 86.44 821.60 87.28 814.02 C 86.78 808.64 89.96 804.07 92.07 799.42 C 95.71 790.28 101.11 781.95 104.67 772.78 C 108.04 765.48 112.03 758.47 115.00 750.99 C 118.18 744.22 121.81 737.68 124.98 730.91 C 127.96 723.48 131.95 716.51 135.29 709.25 C 138.90 699.89 144.39 691.41 148.08 682.09 C 150.78 676.82 153.10 671.34 156.21 666.30 C 112.90 684.60 69.49 702.78 26.18 721.10 C 21.43 722.15 16.05 722.35 11.44 720.59 C 6.17 717.00 0.64 711.88 0.69 704.96 C -0.12 698.42 3.26 692.60 5.90 686.91 C 24.91 643.73 44.19 600.67 63.29 557.53 C 67.51 547.83 71.78 538.15 76.36 528.61 C 88.62 499.67 102.09 471.27 114.33 442.33 C 128.33 412.15 141.15 381.43 155.09 351.22 C 165.45 326.99 176.57 303.10 187.11 278.95 C 207.31 233.58 227.30 188.13 247.68 142.84 C 259.05 116.38 271.34 90.32 282.56 63.80 C 290.35 46.47 298.36 29.25 305.76 11.75 C 307.16 7.88 310.05 4.55 313.68 2.62 M 316.49 71.50 C 312.48 80.43 308.23 89.24 304.36 98.23 C 296.71 116.45 288.35 134.35 280.35 152.41 C 260.19 198.17 239.68 243.77 219.54 289.53 C 210.78 308.27 202.96 327.42 194.26 346.18 C 185.95 364.36 178.29 382.81 170.02 400.99 C 162.57 416.45 156.28 432.44 149.11 448.03 C 141.08 466.07 132.82 483.99 125.11 502.17 C 117.53 518.60 110.27 535.18 103.00 551.74 C 96.51 566.65 89.40 581.32 83.28 596.38 C 78.03 607.63 73.13 619.04 67.98 630.34 C 64.29 638.06 61.43 646.13 57.59 653.77 C 54.80 660.91 51.04 667.65 48.49 674.87 C 64.27 668.57 79.68 661.40 95.47 655.13 C 126.51 641.88 157.72 629.04 188.77 615.82 C 229.49 598.45 270.47 581.65 311.16 564.19 C 315.32 561.49 320.20 561.22 324.99 560.97 C 327.44 561.29 329.92 561.25 332.37 561.56 C 336.87 562.75 340.76 565.46 345.17 566.91 C 357.97 572.33 370.72 577.87 383.58 583.15 C 406.77 592.61 429.67 602.81 452.92 612.13 C 473.33 621.21 494.03 629.67 514.69 638.20 C 528.29 644.17 542.00 649.89 555.74 655.54 C 571.06 661.85 586.15 668.68 601.51 674.87 C 597.62 664.83 592.78 655.16 588.52 645.27 C 584.08 634.58 579.20 624.08 574.44 613.54 C 566.07 594.58 557.80 575.59 549.21 556.72 C 530.92 515.36 512.58 474.01 494.03 432.75 C 486.18 413.40 476.78 394.74 468.73 375.48 C 460.51 356.32 451.57 337.46 443.32 318.32 C 434.86 298.69 425.70 279.36 417.36 259.69 C 395.67 211.61 374.68 163.22 352.92 115.17 C 347.85 103.61 343.13 91.89 337.57 80.55 C 334.52 72.96 330.42 65.79 327.97 57.97 C 326.90 60.17 325.88 62.41 325.00 64.70 C 324.08 62.37 323.05 60.09 322.04 57.80 C 320.93 62.66 318.24 66.89 316.49 71.50 M 239.89 627.89 C 227.21 633.19 214.51 638.46 201.89 643.91 C 200.38 644.38 199.93 646.02 199.24 647.26 C 178.99 689.32 158.98 731.49 138.70 773.53 C 137.38 776.36 135.72 779.09 135.05 782.19 C 139.37 781.62 142.85 778.71 146.78 777.04 C 203.11 748.31 259.28 719.26 315.62 690.56 C 321.66 687.50 329.14 687.69 335.08 690.89 C 393.78 720.87 452.35 751.08 511.04 781.06 C 512.23 781.75 513.60 781.94 514.95 782.18 C 513.99 778.13 511.64 774.61 510.00 770.82 C 497.75 745.70 485.97 720.34 473.69 695.23 C 465.63 678.35 457.80 661.33 449.30 644.67 C 441.17 640.57 432.51 637.43 424.16 633.75 C 402.74 624.96 381.51 615.71 360.14 606.79 C 350.53 602.86 340.96 598.83 331.43 594.72 C 328.77 593.64 325.94 591.77 322.99 592.90 C 295.29 604.55 267.57 616.18 239.89 627.89 Z" stroke-width="1"/>
      <path fill="#000000" opacity="1.00" d="M 322.50 219.01 C 324.16 219.00 325.83 219.00 327.50 219.01 C 327.97 219.43 328.90 220.26 329.37 220.68 C 332.59 222.31 334.97 225.23 336.28 228.56 C 337.28 230.56 338.29 232.56 339.26 234.58 C 340.61 237.23 341.94 239.90 343.26 242.57 C 343.51 243.07 344.00 244.06 344.25 244.56 C 344.75 245.54 345.25 246.53 345.74 247.53 C 346.28 249.65 347.24 251.63 348.26 253.57 C 348.95 254.88 349.61 256.22 350.27 257.56 C 350.52 258.06 351.03 259.06 351.28 259.55 C 351.95 260.88 352.61 262.22 353.27 263.56 C 354.29 265.55 355.29 267.55 356.26 269.57 C 356.51 270.07 357.02 271.06 357.27 271.56 C 357.95 272.89 358.61 274.22 359.27 275.57 C 359.52 276.07 360.02 277.07 360.27 277.57 C 362.61 282.24 364.92 286.92 367.24 291.60 C 367.74 292.58 368.24 293.57 368.74 294.57 C 369.16 295.93 369.66 297.27 370.18 298.61 C 370.46 299.09 371.01 300.06 371.29 300.54 C 371.95 301.88 372.61 303.22 373.26 304.56 C 374.09 306.18 374.91 307.81 375.74 309.44 C 376.38 310.77 377.05 312.11 377.73 313.44 C 379.04 316.12 380.35 318.81 381.75 321.46 C 382.24 322.50 382.74 323.54 383.24 324.59 C 384.07 326.21 384.90 327.84 385.74 329.47 C 385.99 330.00 386.49 331.08 386.74 331.62 C 387.03 332.57 387.34 333.51 387.66 334.46 C 388.35 335.78 389.05 337.10 389.76 338.43 C 390.24 339.47 390.75 340.52 391.25 341.57 C 392.09 343.18 392.90 344.81 393.73 346.44 C 393.98 346.94 394.48 347.94 394.73 348.44 C 395.70 350.45 396.70 352.45 397.75 354.43 C 398.24 355.48 398.74 356.52 399.24 357.58 C 400.08 359.19 400.90 360.82 401.74 362.45 C 402.88 364.84 404.09 367.20 405.24 369.59 C 406.09 371.29 406.96 372.98 407.90 374.63 C 407.93 375.12 408.00 376.09 408.03 376.57 C 408.48 377.04 409.36 377.98 409.80 378.44 C 410.06 379.44 410.33 380.43 410.63 381.43 C 411.18 382.47 411.74 383.51 412.29 384.57 C 412.53 385.06 413.03 386.06 413.27 386.56 C 413.94 387.88 414.61 389.21 415.27 390.56 C 416.09 392.18 416.90 393.81 417.73 395.44 C 417.98 395.94 418.49 396.93 418.74 397.43 C 419.23 398.48 419.74 399.53 420.24 400.59 C 420.74 401.54 421.25 402.49 421.77 403.44 C 422.24 404.48 422.74 405.52 423.24 406.58 C 423.93 407.90 424.60 409.23 425.27 410.58 C 426.44 412.91 427.59 415.26 428.75 417.60 C 429.03 418.55 429.34 419.50 429.67 420.45 C 430.56 422.14 431.43 423.84 432.26 425.56 C 433.08 427.18 433.90 428.81 434.75 430.43 C 435.24 431.47 435.75 432.51 436.25 433.57 C 437.29 435.55 438.29 437.55 439.27 439.57 C 439.94 440.89 440.61 442.22 441.27 443.56 C 441.52 444.06 442.02 445.06 442.27 445.56 C 442.94 446.89 443.60 448.23 444.26 449.57 C 445.28 451.56 446.27 453.57 447.25 455.59 C 448.42 457.91 449.59 460.24 450.73 462.59 C 451.18 464.28 451.87 465.90 452.71 467.45 C 453.58 469.14 454.43 470.84 455.26 472.57 C 456.09 474.18 456.90 475.81 457.73 477.44 C 457.98 477.93 458.49 478.93 458.74 479.42 C 459.23 480.46 459.75 481.51 460.26 482.57 C 460.94 483.89 461.60 485.22 462.27 486.57 C 463.29 488.55 464.28 490.56 465.26 492.58 C 467.47 496.89 469.56 501.26 471.75 505.59 C 472.03 506.54 472.34 507.48 472.66 508.43 C 473.19 509.47 473.74 510.51 474.28 511.57 C 474.53 512.07 475.03 513.06 475.28 513.55 C 475.94 514.88 476.61 516.21 477.26 517.56 C 478.08 519.18 478.90 520.81 479.75 522.43 C 480.24 523.47 480.74 524.52 481.25 525.57 C 482.29 527.55 483.27 529.56 484.29 531.56 C 485.32 533.37 486.04 535.34 486.31 537.43 C 487.35 539.67 487.35 542.34 486.31 544.58 C 486.02 545.93 485.77 547.31 485.21 548.60 C 485.14 549.08 484.99 550.05 484.91 550.53 C 484.07 551.85 483.22 553.17 482.37 554.50 C 481.70 555.74 480.71 556.71 479.46 557.36 C 478.46 558.04 477.48 558.75 476.49 559.45 C 475.19 559.75 473.88 560.01 472.58 560.29 C 470.35 561.37 467.65 561.36 465.42 560.31 C 464.09 560.01 462.76 559.73 461.45 559.37 C 460.45 559.01 459.46 558.66 458.47 558.30 C 457.47 557.98 456.47 557.64 455.48 557.31 C 454.47 556.97 453.47 556.64 452.48 556.30 C 451.47 555.97 450.47 555.64 449.48 555.30 C 448.48 554.97 447.48 554.65 446.49 554.33 C 445.09 553.87 443.73 553.30 442.39 552.72 C 441.44 552.35 440.49 551.99 439.54 551.66 C 438.53 551.33 437.53 551.01 436.52 550.71 C 435.18 550.21 433.82 549.77 432.48 549.29 C 431.46 548.97 430.46 548.65 429.47 548.32 C 428.46 547.99 427.46 547.65 426.47 547.31 C 425.46 546.98 424.46 546.65 423.47 546.31 C 422.46 545.98 421.46 545.65 420.47 545.31 C 419.46 544.98 418.46 544.65 417.47 544.31 C 416.47 543.98 415.47 543.64 414.48 543.30 C 413.47 542.97 412.48 542.63 411.49 542.29 C 410.48 541.97 409.48 541.65 408.49 541.33 C 407.10 540.85 405.74 540.29 404.39 539.72 C 403.44 539.35 402.49 538.99 401.54 538.66 C 400.53 538.33 399.53 538.01 398.52 537.71 C 397.17 537.21 395.82 536.77 394.48 536.29 C 393.46 535.98 392.46 535.65 391.47 535.32 C 390.46 534.99 389.46 534.65 388.47 534.31 C 387.46 533.98 386.46 533.65 385.47 533.31 C 384.46 532.98 383.46 532.65 382.47 532.31 C 381.47 531.98 380.47 531.65 379.48 531.31 C 378.47 530.98 377.47 530.64 376.48 530.31 C 375.47 529.98 374.47 529.64 373.48 529.30 C 372.48 528.98 371.48 528.66 370.49 528.33 C 369.10 527.85 367.74 527.29 366.39 526.72 C 365.44 526.35 364.49 526.00 363.54 525.67 C 362.54 525.33 361.54 525.00 360.53 524.69 C 359.54 524.33 358.54 523.99 357.55 523.68 C 356.54 523.33 355.54 523.01 354.53 522.71 C 353.18 522.21 351.82 521.77 350.48 521.29 C 349.47 520.97 348.46 520.65 347.47 520.32 C 346.46 519.99 345.46 519.65 344.47 519.31 C 343.47 518.98 342.47 518.64 341.48 518.31 C 340.47 517.98 339.47 517.65 338.48 517.31 C 337.47 516.99 336.47 516.65 335.48 516.30 C 334.48 515.98 333.48 515.66 332.49 515.34 C 331.09 514.87 329.74 514.29 328.41 513.68 C 326.30 512.63 323.69 512.62 321.59 513.69 C 320.25 514.29 318.89 514.86 317.50 515.33 C 316.51 515.66 315.51 515.98 314.52 516.30 C 313.52 516.64 312.52 516.98 311.52 517.30 C 310.52 517.65 309.52 517.98 308.53 518.32 C 307.52 518.64 306.52 518.96 305.51 519.26 C 304.15 519.77 302.78 520.26 301.43 520.81 C 300.96 520.91 300.03 521.10 299.56 521.20 C 298.56 521.59 297.55 521.98 296.55 522.35 C 295.54 522.66 294.52 522.97 293.51 523.26 C 292.16 523.78 290.79 524.26 289.45 524.81 C 288.98 524.90 288.02 525.09 287.54 525.18 C 286.23 525.71 284.91 526.21 283.60 526.77 C 282.25 527.31 280.89 527.85 279.51 528.33 C 278.51 528.65 277.51 528.97 276.52 529.30 C 275.52 529.64 274.52 529.97 273.52 530.31 C 272.52 530.64 271.52 530.98 270.52 531.30 C 269.52 531.65 268.53 531.98 267.53 532.31 C 266.53 532.65 265.53 532.98 264.53 533.31 C 263.53 533.65 262.53 533.99 261.53 534.32 C 260.53 534.66 259.54 534.99 258.54 535.32 C 257.53 535.65 256.53 535.97 255.52 536.29 C 254.18 536.77 252.82 537.22 251.48 537.72 C 250.46 538.01 249.46 538.33 248.46 538.66 C 247.50 538.99 246.55 539.34 245.61 539.72 C 244.25 540.29 242.89 540.85 241.50 541.33 C 240.51 541.66 239.51 541.98 238.52 542.30 C 237.52 542.64 236.52 542.98 235.52 543.31 C 234.52 543.65 233.53 543.98 232.53 544.31 C 231.53 544.65 230.53 544.99 229.53 545.31 C 228.53 545.65 227.53 545.99 226.53 546.31 C 225.53 546.65 224.53 546.98 223.53 547.31 C 222.53 547.65 221.53 547.99 220.54 548.32 C 219.53 548.65 218.53 548.97 217.52 549.29 C 216.18 549.77 214.82 550.22 213.48 550.71 C 212.46 551.01 211.46 551.33 210.46 551.66 C 209.50 551.99 208.55 552.35 207.61 552.72 C 206.26 553.30 204.90 553.86 203.51 554.33 C 202.51 554.65 201.51 554.97 200.52 555.30 C 199.52 555.64 198.52 555.97 197.52 556.30 C 196.52 556.64 195.52 556.98 194.52 557.31 C 193.52 557.64 192.52 557.97 191.52 558.30 C 190.53 558.66 189.54 559.01 188.55 559.37 C 187.24 559.74 185.91 560.01 184.58 560.32 C 182.34 561.36 179.65 561.37 177.42 560.30 C 176.11 560.01 174.80 559.76 173.50 559.45 C 172.51 558.75 171.53 558.04 170.54 557.36 C 169.27 556.71 168.29 555.73 167.63 554.48 C 166.96 553.47 166.29 552.49 165.63 551.49 C 165.29 550.51 164.97 549.53 164.64 548.55 C 164.26 547.23 163.98 545.90 163.69 544.58 C 162.62 542.34 162.66 539.67 163.68 537.43 C 164.03 534.58 165.37 532.04 166.75 529.58 C 167.25 528.52 167.76 527.48 168.26 526.44 C 168.94 525.11 169.61 523.77 170.26 522.43 C 170.75 521.47 171.25 520.52 171.76 519.58 C 172.25 518.52 172.76 517.47 173.25 516.42 C 173.51 515.93 174.02 514.95 174.28 514.46 C 174.53 513.95 175.01 512.94 175.26 512.44 C 175.95 511.10 176.64 509.77 177.34 508.45 C 177.66 507.50 177.96 506.55 178.25 505.59 C 179.42 503.26 180.56 500.91 181.75 498.59 C 182.72 496.57 183.72 494.56 184.74 492.58 C 185.39 491.23 186.05 489.89 186.73 488.56 C 186.98 488.06 187.48 487.06 187.73 486.56 C 188.38 485.22 189.05 483.89 189.74 482.57 C 190.58 480.85 191.43 479.14 192.24 477.42 C 192.75 476.47 193.26 475.52 193.77 474.58 C 194.25 473.52 194.75 472.47 195.23 471.42 C 195.74 470.46 196.25 469.52 196.77 468.58 C 197.74 466.64 198.67 464.68 199.28 462.60 C 200.41 460.24 201.58 457.90 202.75 455.56 C 203.00 455.07 203.49 454.08 203.73 453.59 C 204.39 452.24 205.06 450.90 205.74 449.57 C 206.39 448.23 207.05 446.89 207.72 445.56 C 207.98 445.06 208.49 444.07 208.74 443.57 C 209.57 441.85 210.42 440.15 211.26 438.44 C 212.29 436.45 213.29 434.45 214.27 432.44 C 214.94 431.11 215.61 429.77 216.27 428.44 C 217.09 426.81 217.91 425.18 218.72 423.55 C 219.40 422.18 220.11 420.82 220.86 419.48 C 220.93 419.02 221.06 418.09 221.12 417.63 C 222.42 415.32 223.56 412.94 224.74 410.58 C 225.39 409.23 226.06 407.90 226.73 406.57 C 227.39 405.23 228.05 403.89 228.72 402.56 C 228.98 402.06 229.49 401.07 229.74 400.57 C 230.70 398.55 231.70 396.55 232.75 394.57 C 233.24 393.52 233.75 392.47 234.26 391.42 C 234.51 390.93 235.03 389.95 235.28 389.46 C 235.52 388.96 236.01 387.95 236.25 387.44 C 236.74 386.48 237.24 385.52 237.74 384.57 C 238.26 383.51 238.81 382.46 239.36 381.42 C 239.65 380.43 239.93 379.43 240.20 378.44 C 240.64 377.97 241.53 377.04 241.97 376.57 C 242.00 376.09 242.07 375.12 242.10 374.64 C 243.04 372.97 243.91 371.27 244.76 369.56 C 245.00 369.07 245.50 368.09 245.74 367.59 C 246.58 365.87 247.43 364.16 248.26 362.45 C 249.10 360.82 249.91 359.19 250.73 357.57 C 251.38 356.22 252.05 354.89 252.74 353.57 C 253.24 352.52 253.76 351.47 254.26 350.43 C 254.51 349.93 255.02 348.94 255.27 348.44 C 256.09 346.81 256.91 345.18 257.75 343.57 C 258.24 342.52 258.76 341.47 259.26 340.43 C 259.51 339.93 260.01 338.94 260.26 338.44 C 260.95 337.11 261.64 335.78 262.34 334.45 C 262.65 333.51 262.96 332.57 263.26 331.62 C 263.51 331.08 264.01 330.00 264.26 329.46 C 265.10 327.84 265.92 326.21 266.77 324.59 C 267.25 323.54 267.75 322.49 268.24 321.45 C 268.74 320.49 269.25 319.54 269.76 318.59 C 270.58 316.86 271.43 315.15 272.24 313.42 C 272.75 312.47 273.26 311.52 273.77 310.58 C 274.25 309.52 274.75 308.47 275.24 307.43 C 276.09 305.81 276.91 304.19 277.75 302.57 C 278.24 301.52 278.75 300.48 279.27 299.45 C 280.13 297.91 280.82 296.28 281.25 294.57 C 281.75 293.57 282.25 292.58 282.76 291.60 C 285.42 286.26 288.02 280.88 290.75 275.58 C 291.25 274.52 291.75 273.48 292.25 272.43 C 293.30 270.46 294.30 268.46 295.27 266.44 C 295.94 265.11 296.61 263.78 297.26 262.44 C 298.09 260.81 298.90 259.18 299.75 257.57 C 300.24 256.52 300.75 255.47 301.24 254.42 C 301.94 253.10 302.64 251.78 303.35 250.46 C 303.66 249.48 303.95 248.50 304.24 247.52 C 304.74 246.53 305.24 245.55 305.75 244.57 C 306.00 244.07 306.49 243.07 306.74 242.57 C 308.06 239.90 309.38 237.22 310.76 234.58 C 311.25 233.53 311.75 232.48 312.24 231.43 C 312.74 230.48 313.24 229.52 313.74 228.57 C 315.01 225.22 317.42 222.32 320.63 220.68 C 321.10 220.26 322.03 219.43 322.50 219.01 M 323.99 284.69 C 323.73 285.38 323.23 286.76 322.97 287.45 C 322.44 288.47 321.89 289.49 321.36 290.52 C 320.08 292.68 319.85 295.37 318.07 297.23 C 317.72 297.83 317.03 299.03 316.68 299.63 C 316.67 300.06 316.66 300.93 316.66 301.36 C 316.05 302.38 315.45 303.41 314.85 304.44 C 314.38 305.48 313.89 306.52 313.42 307.57 C 313.15 308.07 312.63 309.06 312.37 309.56 C 312.12 310.05 311.62 311.05 311.37 311.55 C 310.69 312.86 310.04 314.19 309.40 315.53 C 309.14 316.04 308.63 317.06 308.37 317.57 C 307.69 318.87 307.04 320.20 306.40 321.53 C 306.14 322.04 305.62 323.07 305.36 323.58 C 304.69 324.89 304.03 326.21 303.42 327.55 C 302.90 328.52 302.38 329.48 301.87 330.44 C 301.39 331.48 300.90 332.51 300.42 333.55 C 300.16 334.05 299.63 335.07 299.37 335.58 C 298.70 336.87 298.04 338.18 297.38 339.49 C 295.90 342.42 295.06 345.63 293.44 348.49 C 293.18 348.99 292.66 349.99 292.40 350.49 C 292.15 351.01 291.64 352.04 291.39 352.55 C 290.71 353.85 290.05 355.16 289.41 356.49 C 289.16 357.00 288.67 358.02 288.42 358.54 C 287.90 359.51 287.38 360.48 286.86 361.46 C 286.39 362.49 285.90 363.52 285.43 364.55 C 285.16 365.06 284.63 366.07 284.36 366.58 C 283.69 367.89 283.02 369.21 282.38 370.55 C 281.70 371.87 281.04 373.20 280.40 374.54 C 279.23 376.71 278.07 378.92 277.44 381.32 C 277.19 381.94 276.68 383.17 276.43 383.79 C 275.99 384.15 275.12 384.86 274.69 385.22 C 274.67 385.77 274.62 386.86 274.59 387.41 C 273.79 388.75 273.06 390.13 272.37 391.53 C 271.70 392.86 271.04 394.19 270.40 395.53 C 269.71 396.86 269.04 398.19 268.39 399.54 C 267.71 400.86 267.04 402.19 266.39 403.53 C 265.71 404.83 265.06 406.15 264.42 407.49 C 264.16 407.99 263.65 408.99 263.40 409.49 C 263.15 410.01 262.67 411.04 262.43 411.55 C 261.88 412.55 261.35 413.56 260.81 414.56 C 260.35 415.55 259.88 416.55 259.41 417.54 C 258.71 418.86 258.04 420.20 257.43 421.56 C 256.86 422.58 256.27 423.60 255.68 424.62 C 255.67 425.03 255.65 425.86 255.64 426.28 C 254.85 427.65 254.10 429.06 253.39 430.48 C 253.15 430.98 252.66 431.99 252.41 432.49 C 252.16 433.00 251.65 434.03 251.39 434.55 C 250.71 435.86 250.04 437.19 249.40 438.53 C 249.14 439.04 248.62 440.06 248.37 440.57 C 248.12 441.07 247.62 442.07 247.37 442.57 C 246.70 443.86 246.04 445.17 245.41 446.49 C 245.16 447.00 244.65 448.03 244.40 448.54 C 243.71 449.85 243.04 451.18 242.40 452.53 C 242.14 453.04 241.63 454.06 241.37 454.57 C 240.69 455.88 240.03 457.20 239.40 458.53 C 239.14 459.04 238.63 460.07 238.38 460.58 C 237.23 462.75 236.00 464.93 235.46 467.35 C 235.19 467.90 234.66 469.00 234.39 469.55 C 233.71 470.85 233.05 472.16 232.42 473.49 C 232.16 473.99 231.66 474.99 231.40 475.50 C 231.15 476.01 230.64 477.03 230.39 477.54 C 229.71 478.86 229.04 480.20 228.39 481.54 C 227.71 482.86 227.04 484.19 226.40 485.53 C 226.14 486.03 225.63 487.05 225.37 487.56 C 225.12 488.06 224.62 489.07 224.37 489.58 C 223.70 490.86 223.04 492.17 222.41 493.49 C 222.16 494.00 221.64 495.03 221.39 495.55 C 220.70 496.86 220.04 498.19 219.39 499.54 C 219.14 500.05 218.64 501.07 218.38 501.58 C 217.53 503.25 216.69 504.93 215.75 506.57 C 215.25 507.80 214.77 509.06 214.52 510.39 C 213.80 511.72 213.05 513.05 212.28 514.36 C 213.83 514.48 215.31 514.22 216.72 513.59 C 219.70 512.57 222.73 511.67 225.68 510.55 C 230.46 509.22 234.91 506.95 239.68 505.56 C 241.70 504.95 243.70 504.29 245.67 503.56 C 249.68 502.26 253.71 500.98 257.67 499.54 C 259.26 499.05 260.83 498.53 262.43 498.09 C 263.83 497.54 265.25 497.06 266.66 496.53 C 269.41 495.75 272.22 495.00 274.65 493.42 C 275.08 493.37 275.93 493.26 276.36 493.21 C 277.35 492.75 278.37 492.36 279.42 492.04 C 280.83 491.53 282.27 491.08 283.67 490.54 C 285.26 490.06 286.84 489.53 288.44 489.09 C 289.83 488.54 291.26 488.06 292.67 487.53 C 294.69 486.97 296.70 486.31 298.66 485.55 C 301.41 484.73 304.22 484.00 306.65 482.41 C 307.08 482.36 307.92 482.27 308.34 482.22 C 310.00 481.36 311.89 481.18 313.65 480.62 C 314.67 480.29 315.68 479.94 316.70 479.59 C 318.42 479.18 320.01 478.40 321.58 477.59 C 322.77 477.30 323.91 476.84 325.00 476.28 C 326.06 476.86 327.18 477.28 328.37 477.56 C 329.95 478.37 331.55 479.20 333.32 479.56 C 334.76 480.07 336.22 480.56 337.65 481.14 C 339.09 481.16 340.43 481.52 341.66 482.23 C 342.08 482.28 342.93 482.36 343.35 482.40 C 344.88 483.35 346.49 484.28 348.32 484.53 C 349.75 485.07 351.20 485.57 352.61 486.21 C 353.04 486.27 353.90 486.40 354.34 486.46 C 358.25 488.06 362.32 489.23 366.34 490.55 C 367.74 491.07 369.17 491.54 370.57 492.10 C 372.17 492.53 373.75 493.04 375.34 493.51 C 376.91 494.37 378.53 495.20 380.30 495.57 C 384.71 497.11 389.18 498.46 393.57 500.06 C 394.58 500.36 395.58 500.68 396.59 501.02 C 397.59 501.34 398.58 501.68 399.58 502.04 C 400.58 502.35 401.59 502.67 402.59 503.02 C 403.59 503.34 404.59 503.68 405.58 504.05 C 408.18 504.82 410.73 505.75 413.32 506.59 C 414.34 506.94 415.37 507.27 416.41 507.58 C 418.90 508.94 421.62 509.78 424.34 510.54 C 425.73 511.07 427.15 511.54 428.55 512.08 C 431.64 512.83 434.51 514.46 437.76 514.41 C 436.93 513.04 436.14 511.67 435.32 510.32 C 435.32 509.89 435.33 509.05 435.33 508.63 C 434.73 507.61 434.14 506.59 433.58 505.57 C 432.96 504.21 432.30 502.87 431.62 501.54 C 431.36 501.03 430.85 500.01 430.60 499.50 C 430.34 498.99 429.83 497.99 429.58 497.49 C 428.75 495.80 427.90 494.13 427.10 492.44 C 426.60 491.48 426.10 490.53 425.61 489.58 C 425.35 489.07 424.84 488.06 424.58 487.55 C 424.11 486.55 423.65 485.55 423.19 484.56 C 422.65 483.57 422.12 482.56 421.60 481.58 C 421.36 481.08 420.88 480.07 420.64 479.57 C 420.38 479.07 419.88 478.07 419.63 477.56 C 419.37 477.06 418.86 476.04 418.61 475.54 C 418.35 475.03 417.84 474.01 417.59 473.50 C 417.34 472.99 416.83 471.99 416.58 471.48 C 415.90 470.10 415.21 468.73 414.53 467.35 C 414.09 465.25 413.02 463.37 412.12 461.45 C 411.61 460.49 411.10 459.53 410.60 458.58 C 410.36 458.08 409.88 457.07 409.63 456.57 C 409.38 456.07 408.88 455.07 408.63 454.57 C 408.37 454.06 407.86 453.04 407.60 452.53 C 407.35 452.02 406.84 451.00 406.58 450.49 C 405.94 449.17 405.29 447.86 404.63 446.56 C 404.37 446.06 403.85 445.06 403.58 444.56 C 403.09 443.52 402.60 442.50 402.12 441.47 C 401.26 439.85 400.45 438.21 399.62 436.58 C 398.97 435.23 398.31 433.90 397.63 432.58 C 397.38 432.08 396.89 431.08 396.65 430.58 C 395.93 429.13 395.18 427.72 394.38 426.33 C 394.36 425.90 394.32 425.05 394.30 424.63 C 393.34 422.99 392.48 421.29 391.63 419.60 C 391.36 419.09 390.84 418.06 390.57 417.54 C 390.09 416.51 389.60 415.48 389.13 414.46 C 388.62 413.49 388.11 412.53 387.61 411.58 C 387.35 411.07 386.84 410.06 386.58 409.55 C 386.09 408.51 385.60 407.48 385.13 406.45 C 384.61 405.49 384.10 404.53 383.59 403.57 C 383.35 403.06 382.86 402.04 382.61 401.53 C 382.36 401.02 381.85 400.00 381.59 399.49 C 380.93 398.15 380.26 396.81 379.58 395.49 C 378.94 394.16 378.28 392.84 377.59 391.54 C 376.57 389.56 375.48 387.59 375.08 385.39 C 374.05 384.18 373.21 382.84 372.47 381.45 C 372.29 379.65 371.38 378.07 370.62 376.48 C 369.94 375.16 369.28 373.84 368.61 372.54 C 368.35 372.03 367.85 371.00 367.59 370.49 C 367.34 369.99 366.83 368.99 366.58 368.49 C 365.75 366.81 364.90 365.14 364.11 363.45 C 363.60 362.48 363.10 361.52 362.60 360.57 C 362.36 360.07 361.88 359.06 361.64 358.56 C 361.38 358.05 360.86 357.05 360.61 356.54 C 360.35 356.03 359.85 355.01 359.60 354.50 C 359.35 354.00 358.84 352.99 358.59 352.49 C 357.94 351.16 357.28 349.84 356.61 348.54 C 355.92 347.13 355.22 345.74 354.53 344.35 C 354.23 342.62 353.46 341.05 352.63 339.53 C 352.37 339.02 351.85 338.00 351.59 337.49 C 351.34 336.99 350.84 335.99 350.59 335.49 C 349.95 334.17 349.29 332.86 348.62 331.56 C 347.97 330.21 347.30 328.89 346.62 327.57 C 346.37 327.07 345.88 326.06 345.63 325.56 C 345.38 325.06 344.88 324.05 344.63 323.55 C 344.37 323.05 343.86 322.05 343.61 321.55 C 342.96 320.20 342.30 318.87 341.63 317.54 C 341.37 317.04 340.86 316.04 340.61 315.54 C 340.35 315.03 339.85 314.00 339.59 313.49 C 338.94 312.16 338.28 310.84 337.60 309.53 C 336.96 308.20 336.30 306.89 335.60 305.59 C 334.14 302.90 333.16 300.01 332.04 297.17 C 330.02 295.49 329.99 292.65 328.64 290.53 C 328.10 289.49 327.56 288.47 327.02 287.44 C 326.77 286.75 326.26 285.38 326.01 284.69 C 325.50 284.69 324.49 284.69 323.99 284.69 Z" stroke-width="1"/>
    </g>
    <g id="#afafafff">
      <path fill="#afafaf" opacity="1.00" d="M 316.49 71.50 C 318.24 66.89 320.93 62.66 322.04 57.80 C 323.05 60.09 324.08 62.37 325.00 64.70 C 325.88 62.41 326.90 60.17 327.97 57.97 C 330.42 65.79 334.52 72.96 337.57 80.55 C 343.13 91.89 347.85 103.61 352.92 115.17 C 374.68 163.22 395.67 211.61 417.36 259.69 C 425.70 279.36 434.86 298.69 443.32 318.32 C 451.57 337.46 460.51 356.32 468.73 375.48 C 476.78 394.74 486.18 413.40 494.03 432.75 C 512.58 474.01 530.92 515.36 549.21 556.72 C 557.80 575.59 566.07 594.58 574.44 613.54 C 579.20 624.08 584.08 634.58 588.52 645.27 C 592.78 655.16 597.62 664.83 601.51 674.87 C 586.15 668.68 571.06 661.85 555.74 655.54 C 542.00 649.89 528.29 644.17 514.69 638.20 C 494.03 629.67 473.33 621.21 452.92 612.13 C 429.67 602.81 406.77 592.61 383.58 583.15 C 370.72 577.87 357.97 572.33 345.17 566.91 C 340.76 565.46 336.87 562.75 332.37 561.56 C 329.92 561.25 327.44 561.29 324.99 560.97 C 320.20 561.22 315.32 561.49 311.16 564.19 C 270.47 581.65 229.49 598.45 188.77 615.82 C 157.72 629.04 126.51 641.88 95.47 655.13 C 79.68 661.40 64.27 668.57 48.49 674.87 C 51.04 667.65 54.80 660.91 57.59 653.77 C 61.43 646.13 64.29 638.06 67.98 630.34 C 73.13 619.04 78.03 607.63 83.28 596.38 C 89.40 581.32 96.51 566.65 103.00 551.74 C 110.27 535.18 117.53 518.60 125.11 502.17 C 132.82 483.99 141.08 466.07 149.11 448.03 C 156.28 432.44 162.57 416.45 170.02 400.99 C 178.29 382.81 185.95 364.36 194.26 346.18 C 202.96 327.42 210.78 308.27 219.54 289.53 C 239.68 243.77 260.19 198.17 280.35 152.41 C 288.35 134.35 296.71 116.45 304.36 98.23 C 308.23 89.24 312.48 80.43 316.49 71.50 M 322.50 219.01 C 322.03 219.43 321.10 220.26 320.63 220.68 C 317.42 222.32 315.01 225.22 313.74 228.57 C 313.24 229.52 312.74 230.48 312.24 231.43 C 311.75 232.48 311.25 233.53 310.76 234.58 C 309.38 237.22 308.06 239.90 306.74 242.57 C 306.49 243.07 306.00 244.07 305.75 244.57 C 305.24 245.55 304.74 246.53 304.24 247.52 C 303.95 248.50 303.66 249.48 303.35 250.46 C 302.64 251.78 301.94 253.10 301.24 254.42 C 300.75 255.47 300.24 256.52 299.75 257.57 C 298.90 259.18 298.09 260.81 297.26 262.44 C 296.61 263.78 295.94 265.11 295.27 266.44 C 294.30 268.46 293.30 270.46 292.25 272.43 C 291.75 273.48 291.25 274.52 290.75 275.58 C 288.02 280.88 285.42 286.26 282.76 291.60 C 282.25 292.58 281.75 293.57 281.25 294.57 C 280.82 296.28 280.13 297.91 279.27 299.45 C 278.75 300.48 278.24 301.52 277.75 302.57 C 276.91 304.19 276.09 305.81 275.24 307.43 C 274.75 308.47 274.25 309.52 273.77 310.58 C 273.26 311.52 272.75 312.47 272.24 313.42 C 271.43 315.15 270.58 316.86 269.76 318.59 C 269.25 319.54 268.74 320.49 268.24 321.45 C 267.75 322.49 267.25 323.54 266.77 324.59 C 265.92 326.21 265.10 327.84 264.26 329.46 C 264.01 330.00 263.51 331.08 263.26 331.62 C 262.96 332.57 262.65 333.51 262.34 334.45 C 261.64 335.78 260.95 337.11 260.26 338.44 C 260.01 338.94 259.51 339.93 259.26 340.43 C 258.76 341.47 258.24 342.52 257.75 343.57 C 256.91 345.18 256.09 346.81 255.27 348.44 C 255.02 348.94 254.51 349.93 254.26 350.43 C 253.76 351.47 253.24 352.52 252.74 353.57 C 252.05 354.89 251.38 356.22 250.73 357.57 C 249.91 359.19 249.10 360.82 248.26 362.45 C 247.43 364.16 246.58 365.87 245.74 367.59 C 245.50 368.09 245.00 369.07 244.76 369.56 C 243.91 371.27 243.04 372.97 242.10 374.64 C 242.07 375.12 242.00 376.09 241.97 376.57 C 241.53 377.04 240.64 377.97 240.20 378.44 C 239.93 379.43 239.65 380.43 239.36 381.42 C 238.81 382.46 238.26 383.51 237.74 384.57 C 237.24 385.52 236.74 386.48 236.25 387.44 C 236.01 387.95 235.52 388.96 235.28 389.46 C 235.03 389.95 234.51 390.93 234.26 391.42 C 233.75 392.47 233.24 393.52 232.75 394.57 C 231.70 396.55 230.70 398.55 229.74 400.57 C 229.49 401.07 228.98 402.06 228.72 402.56 C 228.05 403.89 227.39 405.23 226.73 406.57 C 226.06 407.90 225.39 409.23 224.74 410.58 C 223.56 412.94 222.42 415.32 221.12 417.63 C 221.06 418.09 220.93 419.02 220.86 419.48 C 220.11 420.82 219.40 422.18 218.72 423.55 C 217.91 425.18 217.09 426.81 216.27 428.44 C 215.61 429.77 214.94 431.11 214.27 432.44 C 213.29 434.45 212.29 436.45 211.26 438.44 C 210.42 440.15 209.57 441.85 208.74 443.57 C 208.49 444.07 207.98 445.06 207.72 445.56 C 207.05 446.89 206.39 448.23 205.74 449.57 C 205.06 450.90 204.39 452.24 203.73 453.59 C 203.49 454.08 203.00 455.07 202.75 455.56 C 201.58 457.90 200.41 460.24 199.28 462.60 C 198.67 464.68 197.74 466.64 196.77 468.58 C 196.25 469.52 195.74 470.46 195.23 471.42 C 194.75 472.47 194.25 473.52 193.77 474.58 C 193.26 475.52 192.75 476.47 192.24 477.42 C 191.43 479.14 190.58 480.85 189.74 482.57 C 189.05 483.89 188.38 485.22 187.73 486.56 C 187.48 487.06 186.98 488.06 186.73 488.56 C 186.05 489.89 185.39 491.23 184.74 492.58 C 183.72 494.56 182.72 496.57 181.75 498.59 C 180.56 500.91 179.42 503.26 178.25 505.59 C 177.96 506.55 177.66 507.50 177.34 508.45 C 176.64 509.77 175.95 511.10 175.26 512.44 C 175.01 512.94 174.53 513.95 174.28 514.46 C 174.02 514.95 173.51 515.93 173.25 516.42 C 172.76 517.47 172.25 518.52 171.76 519.58 C 171.25 520.52 170.75 521.47 170.26 522.43 C 169.61 523.77 168.94 525.11 168.26 526.44 C 167.76 527.48 167.25 528.52 166.75 529.58 C 165.37 532.04 164.03 534.58 163.68 537.43 C 162.66 539.67 162.62 542.34 163.69 544.58 C 163.98 545.90 164.26 547.23 164.64 548.55 C 164.97 549.53 165.29 550.51 165.63 551.49 C 166.29 552.49 166.96 553.47 167.63 554.48 C 168.29 555.73 169.27 556.71 170.54 557.36 C 171.53 558.04 172.51 558.75 173.50 559.45 C 174.80 559.76 176.11 560.01 177.42 560.30 C 179.65 561.37 182.34 561.36 184.58 560.32 C 185.91 560.01 187.24 559.74 188.55 559.37 C 189.54 559.01 190.53 558.66 191.52 558.30 C 192.52 557.97 193.52 557.64 194.52 557.31 C 195.52 556.98 196.52 556.64 197.52 556.30 C 198.52 555.97 199.52 555.64 200.52 555.30 C 201.51 554.97 202.51 554.65 203.51 554.33 C 204.90 553.86 206.26 553.30 207.61 552.72 C 208.55 552.35 209.50 551.99 210.46 551.66 C 211.46 551.33 212.46 551.01 213.48 550.71 C 214.82 550.22 216.18 549.77 217.52 549.29 C 218.53 548.97 219.53 548.65 220.54 548.32 C 221.53 547.99 222.53 547.65 223.53 547.31 C 224.53 546.98 225.53 546.65 226.53 546.31 C 227.53 545.99 228.53 545.65 229.53 545.31 C 230.53 544.99 231.53 544.65 232.53 544.31 C 233.53 543.98 234.52 543.65 235.52 543.31 C 236.52 542.98 237.52 542.64 238.52 542.30 C 239.51 541.98 240.51 541.66 241.50 541.33 C 242.89 540.85 244.25 540.29 245.61 539.72 C 246.55 539.34 247.50 538.99 248.46 538.66 C 249.46 538.33 250.46 538.01 251.48 537.72 C 252.82 537.22 254.18 536.77 255.52 536.29 C 256.53 535.97 257.53 535.65 258.54 535.32 C 259.54 534.99 260.53 534.66 261.53 534.32 C 262.53 533.99 263.53 533.65 264.53 533.31 C 265.53 532.98 266.53 532.65 267.53 532.31 C 268.53 531.98 269.52 531.65 270.52 531.30 C 271.52 530.98 272.52 530.64 273.52 530.31 C 274.52 529.97 275.52 529.64 276.52 529.30 C 277.51 528.97 278.51 528.65 279.51 528.33 C 280.89 527.85 282.25 527.31 283.60 526.77 C 284.91 526.21 286.23 525.71 287.54 525.18 C 288.02 525.09 288.98 524.90 289.45 524.81 C 290.79 524.26 292.16 523.78 293.51 523.26 C 294.52 522.97 295.54 522.66 296.55 522.35 C 297.55 521.98 298.56 521.59 299.56 521.20 C 300.03 521.10 300.96 520.91 301.43 520.81 C 302.78 520.26 304.15 519.77 305.51 519.26 C 306.52 518.96 307.52 518.64 308.53 518.32 C 309.52 517.98 310.52 517.65 311.52 517.30 C 312.52 516.98 313.52 516.64 314.52 516.30 C 315.51 515.98 316.51 515.66 317.50 515.33 C 318.89 514.86 320.25 514.29 321.59 513.69 C 323.69 512.62 326.30 512.63 328.41 513.68 C 329.74 514.29 331.09 514.87 332.49 515.34 C 333.48 515.66 334.48 515.98 335.48 516.30 C 336.47 516.65 337.47 516.99 338.48 517.31 C 339.47 517.65 340.47 517.98 341.48 518.31 C 342.47 518.64 343.47 518.98 344.47 519.31 C 345.46 519.65 346.46 519.99 347.47 520.32 C 348.46 520.65 349.47 520.97 350.48 521.29 C 351.82 521.77 353.18 522.21 354.53 522.71 C 355.54 523.01 356.54 523.33 357.55 523.68 C 358.54 523.99 359.54 524.33 360.53 524.69 C 361.54 525.00 362.54 525.33 363.54 525.67 C 364.49 526.00 365.44 526.35 366.39 526.72 C 367.74 527.29 369.10 527.85 370.49 528.33 C 371.48 528.66 372.48 528.98 373.48 529.30 C 374.47 529.64 375.47 529.98 376.48 530.31 C 377.47 530.64 378.47 530.98 379.48 531.31 C 380.47 531.65 381.47 531.98 382.47 532.31 C 383.46 532.65 384.46 532.98 385.47 533.31 C 386.46 533.65 387.46 533.98 388.47 534.31 C 389.46 534.65 390.46 534.99 391.47 535.32 C 392.46 535.65 393.46 535.98 394.48 536.29 C 395.82 536.77 397.17 537.21 398.52 537.71 C 399.53 538.01 400.53 538.33 401.54 538.66 C 402.49 538.99 403.44 539.35 404.39 539.72 C 405.74 540.29 407.10 540.85 408.49 541.33 C 409.48 541.65 410.48 541.97 411.49 542.29 C 412.48 542.63 413.47 542.97 414.48 543.30 C 415.47 543.64 416.47 543.98 417.47 544.31 C 418.46 544.65 419.46 544.98 420.47 545.31 C 421.46 545.65 422.46 545.98 423.47 546.31 C 424.46 546.65 425.46 546.98 426.47 547.31 C 427.46 547.65 428.46 547.99 429.47 548.32 C 430.46 548.65 431.46 548.97 432.48 549.29 C 433.82 549.77 435.18 550.21 436.52 550.71 C 437.53 551.01 438.53 551.33 439.54 551.66 C 440.49 551.99 441.44 552.35 442.39 552.72 C 443.73 553.30 445.09 553.87 446.49 554.33 C 447.48 554.65 448.48 554.97 449.48 555.30 C 450.47 555.64 451.47 555.97 452.48 556.30 C 453.47 556.64 454.47 556.97 455.48 557.31 C 456.47 557.64 457.47 557.98 458.47 558.30 C 459.46 558.66 460.45 559.01 461.45 559.37 C 462.76 559.73 464.09 560.01 465.42 560.31 C 467.65 561.36 470.35 561.37 472.58 560.29 C 473.88 560.01 475.19 559.75 476.49 559.45 C 477.48 558.75 478.46 558.04 479.46 557.36 C 480.71 556.71 481.70 555.74 482.37 554.50 C 483.22 553.17 484.07 551.85 484.91 550.53 C 484.99 550.05 485.14 549.08 485.21 548.60 C 485.77 547.31 486.02 545.93 486.31 544.58 C 487.35 542.34 487.35 539.67 486.31 537.43 C 486.04 535.34 485.32 533.37 484.29 531.56 C 483.27 529.56 482.29 527.55 481.25 525.57 C 480.74 524.52 480.24 523.47 479.75 522.43 C 478.90 520.81 478.08 519.18 477.26 517.56 C 476.61 516.21 475.94 514.88 475.28 513.55 C 475.03 513.06 474.53 512.07 474.28 511.57 C 473.74 510.51 473.19 509.47 472.66 508.43 C 472.34 507.48 472.03 506.54 471.75 505.59 C 469.56 501.26 467.47 496.89 465.26 492.58 C 464.28 490.56 463.29 488.55 462.27 486.57 C 461.60 485.22 460.94 483.89 460.26 482.57 C 459.75 481.51 459.23 480.46 458.74 479.42 C 458.49 478.93 457.98 477.93 457.73 477.44 C 456.90 475.81 456.09 474.18 455.26 472.57 C 454.43 470.84 453.58 469.14 452.71 467.45 C 451.87 465.90 451.18 464.28 450.73 462.59 C 449.59 460.24 448.42 457.91 447.25 455.59 C 446.27 453.57 445.28 451.56 444.26 449.57 C 443.60 448.23 442.94 446.89 442.27 445.56 C 442.02 445.06 441.52 444.06 441.27 443.56 C 440.61 442.22 439.94 440.89 439.27 439.57 C 438.29 437.55 437.29 435.55 436.25 433.57 C 435.75 432.51 435.24 431.47 434.75 430.43 C 433.90 428.81 433.08 427.18 432.26 425.56 C 431.43 423.84 430.56 422.14 429.67 420.45 C 429.34 419.50 429.03 418.55 428.75 417.60 C 427.59 415.26 426.44 412.91 425.27 410.58 C 424.60 409.23 423.93 407.90 423.24 406.58 C 422.74 405.52 422.24 404.48 421.77 403.44 C 421.25 402.49 420.74 401.54 420.24 400.59 C 419.74 399.53 419.23 398.48 418.74 397.43 C 418.49 396.93 417.98 395.94 417.73 395.44 C 416.90 393.81 416.09 392.18 415.27 390.56 C 414.61 389.21 413.94 387.88 413.27 386.56 C 413.03 386.06 412.53 385.06 412.29 384.57 C 411.74 383.51 411.18 382.47 410.63 381.43 C 410.33 380.43 410.06 379.44 409.80 378.44 C 409.36 377.98 408.48 377.04 408.03 376.57 C 408.00 376.09 407.93 375.12 407.90 374.63 C 406.96 372.98 406.09 371.29 405.24 369.59 C 404.09 367.20 402.88 364.84 401.74 362.45 C 400.90 360.82 400.08 359.19 399.24 357.58 C 398.74 356.52 398.24 355.48 397.75 354.43 C 396.70 352.45 395.70 350.45 394.73 348.44 C 394.48 347.94 393.98 346.94 393.73 346.44 C 392.90 344.81 392.09 343.18 391.25 341.57 C 390.75 340.52 390.24 339.47 389.76 338.43 C 389.05 337.10 388.35 335.78 387.66 334.46 C 387.34 333.51 387.03 332.57 386.74 331.62 C 386.49 331.08 385.99 330.00 385.74 329.47 C 384.90 327.84 384.07 326.21 383.24 324.59 C 382.74 323.54 382.24 322.50 381.75 321.46 C 380.35 318.81 379.04 316.12 377.73 313.44 C 377.05 312.11 376.38 310.77 375.74 309.44 C 374.91 307.81 374.09 306.18 373.26 304.56 C 372.61 303.22 371.95 301.88 371.29 300.54 C 371.01 300.06 370.46 299.09 370.18 298.61 C 369.66 297.27 369.16 295.93 368.74 294.57 C 368.24 293.57 367.74 292.58 367.24 291.60 C 364.92 286.92 362.61 282.24 360.27 277.57 C 360.02 277.07 359.52 276.07 359.27 275.57 C 358.61 274.22 357.95 272.89 357.27 271.56 C 357.02 271.06 356.51 270.07 356.26 269.57 C 355.29 267.55 354.29 265.55 353.27 263.56 C 352.61 262.22 351.95 260.88 351.28 259.55 C 351.03 259.06 350.52 258.06 350.27 257.56 C 349.61 256.22 348.95 254.88 348.26 253.57 C 347.24 251.63 346.28 249.65 345.74 247.53 C 345.25 246.53 344.75 245.54 344.25 244.56 C 344.00 244.06 343.51 243.07 343.26 242.57 C 341.94 239.90 340.61 237.23 339.26 234.58 C 338.29 232.56 337.28 230.56 336.28 228.56 C 334.97 225.23 332.59 222.31 329.37 220.68 C 328.90 220.26 327.97 219.43 327.50 219.01 C 325.83 219.00 324.16 219.00 322.50 219.01 Z" stroke-width="1"/>
    </g>
    <g id="#ffffffff">
      <path fill="#ffffff" opacity="1.00" d="M 323.99 284.69 C 324.49 284.69 325.50 284.69 326.01 284.69 C 326.26 285.38 326.77 286.75 327.02 287.44 C 327.56 288.47 328.10 289.49 328.64 290.53 C 329.99 292.65 330.02 295.49 332.04 297.17 C 333.16 300.01 334.14 302.90 335.60 305.59 C 336.30 306.89 336.96 308.20 337.60 309.53 C 338.28 310.84 338.94 312.16 339.59 313.49 C 339.85 314.00 340.35 315.03 340.61 315.54 C 340.86 316.04 341.37 317.04 341.63 317.54 C 342.30 318.87 342.96 320.20 343.61 321.55 C 343.86 322.05 344.37 323.05 344.63 323.55 C 344.88 324.05 345.38 325.06 345.63 325.56 C 345.88 326.06 346.37 327.07 346.62 327.57 C 347.30 328.89 347.97 330.21 348.62 331.56 C 349.29 332.86 349.95 334.17 350.59 335.49 C 350.84 335.99 351.34 336.99 351.59 337.49 C 351.85 338.00 352.37 339.02 352.63 339.53 C 353.46 341.05 354.23 342.62 354.53 344.35 C 355.22 345.74 355.92 347.13 356.61 348.54 C 357.28 349.84 357.94 351.16 358.59 352.49 C 358.84 352.99 359.35 354.00 359.60 354.50 C 359.85 355.01 360.35 356.03 360.61 356.54 C 360.86 357.05 361.38 358.05 361.64 358.56 C 361.88 359.06 362.36 360.07 362.60 360.57 C 363.10 361.52 363.60 362.48 364.11 363.45 C 364.90 365.14 365.75 366.81 366.58 368.49 C 366.83 368.99 367.34 369.99 367.59 370.49 C 367.85 371.00 368.35 372.03 368.61 372.54 C 369.28 373.84 369.94 375.16 370.62 376.48 C 371.38 378.07 372.29 379.65 372.47 381.45 C 373.21 382.84 374.05 384.18 375.08 385.39 C 375.48 387.59 376.57 389.56 377.59 391.54 C 378.28 392.84 378.94 394.16 379.58 395.49 C 380.26 396.81 380.93 398.15 381.59 399.49 C 381.85 400.00 382.36 401.02 382.61 401.53 C 382.86 402.04 383.35 403.06 383.59 403.57 C 384.10 404.53 384.61 405.49 385.13 406.45 C 385.60 407.48 386.09 408.51 386.58 409.55 C 386.84 410.06 387.35 411.07 387.61 411.58 C 388.11 412.53 388.62 413.49 389.13 414.46 C 389.60 415.48 390.09 416.51 390.57 417.54 C 390.84 418.06 391.36 419.09 391.63 419.60 C 392.48 421.29 393.34 422.99 394.30 424.63 C 394.32 425.05 394.36 425.90 394.38 426.33 C 395.18 427.72 395.93 429.13 396.65 430.58 C 396.89 431.08 397.38 432.08 397.63 432.58 C 398.31 433.90 398.97 435.23 399.62 436.58 C 400.45 438.21 401.26 439.85 402.12 441.47 C 402.60 442.50 403.09 443.52 403.58 444.56 C 403.85 445.06 404.37 446.06 404.63 446.56 C 405.29 447.86 405.94 449.17 406.58 450.49 C 406.84 451.00 407.35 452.02 407.60 452.53 C 407.86 453.04 408.37 454.06 408.63 454.57 C 408.88 455.07 409.38 456.07 409.63 456.57 C 409.88 457.07 410.36 458.08 410.60 458.58 C 411.10 459.53 411.61 460.49 412.12 461.45 C 413.02 463.37 414.09 465.25 414.53 467.35 C 415.21 468.73 415.90 470.10 416.58 471.48 C 416.83 471.99 417.34 472.99 417.59 473.50 C 417.84 474.01 418.35 475.03 418.61 475.54 C 418.86 476.04 419.37 477.06 419.63 477.56 C 419.88 478.07 420.38 479.07 420.64 479.57 C 420.88 480.07 421.36 481.08 421.60 481.58 C 422.12 482.56 422.65 483.57 423.19 484.56 C 423.65 485.55 424.11 486.55 424.58 487.55 C 424.84 488.06 425.35 489.07 425.61 489.58 C 426.10 490.53 426.60 491.48 427.10 492.44 C 427.90 494.13 428.75 495.80 429.58 497.49 C 429.83 497.99 430.34 498.99 430.60 499.50 C 430.85 500.01 431.36 501.03 431.62 501.54 C 432.30 502.87 432.96 504.21 433.58 505.57 C 434.14 506.59 434.73 507.61 435.33 508.63 C 435.33 509.05 435.32 509.89 435.32 510.32 C 436.14 511.67 436.93 513.04 437.76 514.41 C 434.51 514.46 431.64 512.83 428.55 512.08 C 427.15 511.54 425.73 511.07 424.34 510.54 C 421.62 509.78 418.90 508.94 416.41 507.58 C 415.37 507.27 414.34 506.94 413.32 506.59 C 410.73 505.75 408.18 504.82 405.58 504.05 C 404.59 503.68 403.59 503.34 402.59 503.02 C 401.59 502.67 400.58 502.35 399.58 502.04 C 398.58 501.68 397.59 501.34 396.59 501.02 C 395.58 500.68 394.58 500.36 393.57 500.06 C 389.18 498.46 384.71 497.11 380.30 495.57 C 378.53 495.20 376.91 494.37 375.34 493.51 C 373.75 493.04 372.17 492.53 370.57 492.10 C 369.17 491.54 367.74 491.07 366.34 490.55 C 362.32 489.23 358.25 488.06 354.34 486.46 C 353.90 486.40 353.04 486.27 352.61 486.21 C 351.20 485.57 349.75 485.07 348.32 484.53 C 346.49 484.28 344.88 483.35 343.35 482.40 C 342.93 482.36 342.08 482.28 341.66 482.23 C 340.43 481.52 339.09 481.16 337.65 481.14 C 336.22 480.56 334.76 480.07 333.32 479.56 C 331.55 479.20 329.95 478.37 328.37 477.56 C 327.18 477.28 326.06 476.86 325.00 476.28 C 323.91 476.84 322.77 477.30 321.58 477.59 C 320.01 478.40 318.42 479.18 316.70 479.59 C 315.68 479.94 314.67 480.29 313.65 480.62 C 311.89 481.18 310.00 481.36 308.34 482.22 C 307.92 482.27 307.08 482.36 306.65 482.41 C 304.22 484.00 301.41 484.73 298.66 485.55 C 296.70 486.31 294.69 486.97 292.67 487.53 C 291.26 488.06 289.83 488.54 288.44 489.09 C 286.84 489.53 285.26 490.06 283.67 490.54 C 282.27 491.08 280.83 491.53 279.42 492.04 C 278.37 492.36 277.35 492.75 276.36 493.21 C 275.93 493.26 275.08 493.37 274.65 493.42 C 272.22 495.00 269.41 495.75 266.66 496.53 C 265.25 497.06 263.83 497.54 262.43 498.09 C 260.83 498.53 259.26 499.05 257.67 499.54 C 253.71 500.98 249.68 502.26 245.67 503.56 C 243.70 504.29 241.70 504.95 239.68 505.56 C 234.91 506.95 230.46 509.22 225.68 510.55 C 222.73 511.67 219.70 512.57 216.72 513.59 C 215.31 514.22 213.83 514.48 212.28 514.36 C 213.05 513.05 213.80 511.72 214.52 510.39 C 214.77 509.06 215.25 507.80 215.75 506.57 C 216.69 504.93 217.53 503.25 218.38 501.58 C 218.64 501.07 219.14 500.05 219.39 499.54 C 220.04 498.19 220.70 496.86 221.39 495.55 C 221.64 495.03 222.16 494.00 222.41 493.49 C 223.04 492.17 223.70 490.86 224.37 489.58 C 224.62 489.07 225.12 488.06 225.37 487.56 C 225.63 487.05 226.14 486.03 226.40 485.53 C 227.04 484.19 227.71 482.86 228.39 481.54 C 229.04 480.20 229.71 478.86 230.39 477.54 C 230.64 477.03 231.15 476.01 231.40 475.50 C 231.66 474.99 232.16 473.99 232.42 473.49 C 233.05 472.16 233.71 470.85 234.39 469.55 C 234.66 469.00 235.19 467.90 235.46 467.35 C 236.00 464.93 237.23 462.75 238.38 460.58 C 238.63 460.07 239.14 459.04 239.40 458.53 C 240.03 457.20 240.69 455.88 241.37 454.57 C 241.63 454.06 242.14 453.04 242.40 452.53 C 243.04 451.18 243.71 449.85 244.40 448.54 C 244.65 448.03 245.16 447.00 245.41 446.49 C 246.04 445.17 246.70 443.86 247.37 442.57 C 247.62 442.07 248.12 441.07 248.37 440.57 C 248.62 440.06 249.14 439.04 249.40 438.53 C 250.04 437.19 250.71 435.86 251.39 434.55 C 251.65 434.03 252.16 433.00 252.41 432.49 C 252.66 431.99 253.15 430.98 253.39 430.48 C 254.10 429.06 254.85 427.65 255.64 426.28 C 255.65 425.86 255.67 425.03 255.68 424.62 C 256.27 423.60 256.86 422.58 257.43 421.56 C 258.04 420.20 258.71 418.86 259.41 417.54 C 259.88 416.55 260.35 415.55 260.81 414.56 C 261.35 413.56 261.88 412.55 262.43 411.55 C 262.67 411.04 263.15 410.01 263.40 409.49 C 263.65 408.99 264.16 407.99 264.42 407.49 C 265.06 406.15 265.71 404.83 266.39 403.53 C 267.04 402.19 267.71 400.86 268.39 399.54 C 269.04 398.19 269.71 396.86 270.40 395.53 C 271.04 394.19 271.70 392.86 272.37 391.53 C 273.06 390.13 273.79 388.75 274.59 387.41 C 274.62 386.86 274.67 385.77 274.69 385.22 C 275.12 384.86 275.99 384.15 276.43 383.79 C 276.68 383.17 277.19 381.94 277.44 381.32 C 278.07 378.92 279.23 376.71 280.40 374.54 C 281.04 373.20 281.70 371.87 282.38 370.55 C 283.02 369.21 283.69 367.89 284.36 366.58 C 284.63 366.07 285.16 365.06 285.43 364.55 C 285.90 363.52 286.39 362.49 286.86 361.46 C 287.38 360.48 287.90 359.51 288.42 358.54 C 288.67 358.02 289.16 357.00 289.41 356.49 C 290.05 355.16 290.71 353.85 291.39 352.55 C 291.64 352.04 292.15 351.01 292.40 350.49 C 292.66 349.99 293.18 348.99 293.44 348.49 C 295.06 345.63 295.90 342.42 297.38 339.49 C 298.04 338.18 298.70 336.87 299.37 335.58 C 299.63 335.07 300.16 334.05 300.42 333.55 C 300.90 332.51 301.39 331.48 301.87 330.44 C 302.38 329.48 302.90 328.52 303.42 327.55 C 304.03 326.21 304.69 324.89 305.36 323.58 C 305.62 323.07 306.14 322.04 306.40 321.53 C 307.04 320.20 307.69 318.87 308.37 317.57 C 308.63 317.06 309.14 316.04 309.40 315.53 C 310.04 314.19 310.69 312.86 311.37 311.55 C 311.62 311.05 312.12 310.05 312.37 309.56 C 312.63 309.06 313.15 308.07 313.42 307.57 C 313.89 306.52 314.38 305.48 314.85 304.44 C 315.45 303.41 316.05 302.38 316.66 301.36 C 316.66 300.93 316.67 300.06 316.68 299.63 C 317.03 299.03 317.72 297.83 318.07 297.23 C 319.85 295.37 320.08 292.68 321.36 290.52 C 321.89 289.49 322.44 288.47 322.97 287.45 C 323.23 286.76 323.73 285.38 323.99 284.69 Z" stroke-width="1"/>
      <path fill="#ffffff" opacity="1.00" d="M 239.89 627.89 C 267.57 616.18 295.29 604.55 322.99 592.90 C 325.94 591.77 328.77 593.64 331.43 594.72 C 340.96 598.83 350.53 602.86 360.14 606.79 C 381.51 615.71 402.74 624.96 424.16 633.75 C 432.51 637.43 441.17 640.57 449.30 644.67 C 457.80 661.33 465.63 678.35 473.69 695.23 C 485.97 720.34 497.75 745.70 510.00 770.82 C 511.64 774.61 513.99 778.13 514.95 782.18 C 513.60 781.94 512.23 781.75 511.04 781.06 C 452.35 751.08 393.78 720.87 335.08 690.89 C 329.14 687.69 321.66 687.50 315.62 690.56 C 259.28 719.26 203.11 748.31 146.78 777.04 C 142.85 778.71 139.37 781.62 135.05 782.19 C 135.72 779.09 137.38 776.36 138.70 773.53 C 158.98 731.49 178.99 689.32 199.24 647.26 C 199.93 646.02 200.38 644.38 201.89 643.91 C 214.51 638.46 227.21 633.19 239.89 627.89 Z" stroke-width="1"/>
    </g>
  </g>
</svg>