<svg version="1.1" xmlns="http://www.w3.org/2000/svg" xmlns:xlink="http://www.w3.org/1999/xlink" width="341.8534" height="271.14877" viewBox="0,0,341.8534,271.14877"><defs><linearGradient x1="12.42781" y1="305.71786" x2="242.13463" y2="305.71786" gradientUnits="userSpaceOnUse" id="color-1"><stop offset="0" stop-color="#0023af"/><stop offset="1" stop-color="#007ce8"/></linearGradient><linearGradient x1="189.35457" y1="221.21113" x2="189.35457" y2="283.36467" gradientUnits="userSpaceOnUse" id="color-2"><stop offset="0" stop-color="#00f8ff"/><stop offset="1" stop-color="#0087ff"/></linearGradient><linearGradient x1="217.76449" y1="218.78738" x2="217.76449" y2="239.45317" gradientUnits="userSpaceOnUse" id="color-3"><stop offset="0" stop-color="#ffffff"/><stop offset="1" stop-color="#00efff"/></linearGradient><linearGradient x1="351.98119" y1="259.38916" x2="327.82499" y2="235.23296" gradientUnits="userSpaceOnUse" id="color-4"><stop offset="0" stop-color="#006964"/><stop offset="1" stop-color="#006964" stop-opacity="0"/></linearGradient><linearGradient x1="283.68019" y1="191.6282" x2="307.83637" y2="215.7844" gradientUnits="userSpaceOnUse" id="color-5"><stop offset="0" stop-color="#006964"/><stop offset="1" stop-color="#006964" stop-opacity="0"/></linearGradient><linearGradient x1="290.00676" y1="211.2098" x2="290.00676" y2="240.98749" gradientUnits="userSpaceOnUse" id="color-6"><stop offset="0" stop-color="#b5fffb"/><stop offset="1" stop-color="#b5fffb" stop-opacity="0"/></linearGradient><linearGradient x1="333.85528" y1="253.55834" x2="304.07759" y2="253.55834" gradientUnits="userSpaceOnUse" id="color-7"><stop offset="0" stop-color="#b5fffb"/><stop offset="1" stop-color="#b5fffb" stop-opacity="0"/></linearGradient><radialGradient cx="333.75001" cy="253.85086" r="15.49638" gradientUnits="userSpaceOnUse" id="color-8"><stop offset="0" stop-color="#d4feff"/><stop offset="1" stop-color="#d4feff" stop-opacity="0"/></radialGradient><radialGradient cx="330.75001" cy="254.35811" r="12.75" gradientUnits="userSpaceOnUse" id="color-9"><stop offset="0" stop-color="#9efeff"/><stop offset="1" stop-color="#9efeff" stop-opacity="0"/></radialGradient><radialGradient cx="291.09602" cy="210.19687" r="15.49637" gradientUnits="userSpaceOnUse" id="color-10"><stop offset="0" stop-color="#d4feff"/><stop offset="1" stop-color="#d4feff" stop-opacity="0"/></radialGradient><radialGradient cx="288.75001" cy="213.85811" r="12.75" gradientUnits="userSpaceOnUse" id="color-11"><stop offset="0" stop-color="#9efeff"/><stop offset="1" stop-color="#9efeff" stop-opacity="0"/></radialGradient><linearGradient x1="270.24369" y1="256.23542" x2="232.29589" y2="294.18322" gradientUnits="userSpaceOnUse" id="color-12"><stop offset="0" stop-color="#0b0047" stop-opacity="0"/><stop offset="1" stop-color="#0b0047"/></linearGradient><linearGradient x1="270.24369" y1="256.23542" x2="232.29589" y2="294.18322" gradientUnits="userSpaceOnUse" id="color-13"><stop offset="0" stop-color="#000000" stop-opacity="0"/><stop offset="1" stop-color="#000000" stop-opacity="0"/></linearGradient><linearGradient x1="286.81878" y1="273.16126" x2="248.87097" y2="311.10906" gradientUnits="userSpaceOnUse" id="color-14"><stop offset="0" stop-color="#0b0047" stop-opacity="0"/><stop offset="1" stop-color="#0b0047"/></linearGradient><linearGradient x1="286.81878" y1="273.16126" x2="248.87097" y2="311.10906" gradientUnits="userSpaceOnUse" id="color-15"><stop offset="0" stop-color="#000000" stop-opacity="0"/><stop offset="1" stop-color="#000000" stop-opacity="0"/></linearGradient><linearGradient x1="298.82271" y1="243.26522" x2="293.86222" y2="248.22572" gradientUnits="userSpaceOnUse" id="color-16"><stop offset="0" stop-color="#bbfffc" stop-opacity="0"/><stop offset="1" stop-color="#bbfffc"/></linearGradient><linearGradient x1="286.93637" y1="254.278" x2="291.89686" y2="249.3175" gradientUnits="userSpaceOnUse" id="color-17"><stop offset="0" stop-color="#bbfffc" stop-opacity="0"/><stop offset="1" stop-color="#bbfffc"/></linearGradient><radialGradient cx="281.78592" cy="234.8719" r="8.41825" gradientUnits="userSpaceOnUse" id="color-18"><stop offset="0" stop-color="#8dfff9"/><stop offset="1" stop-color="#8dfff9" stop-opacity="0"/></radialGradient><radialGradient cx="306.30814" cy="260.50453" r="8.41825" gradientUnits="userSpaceOnUse" id="color-19"><stop offset="0" stop-color="#8dfff9"/><stop offset="1" stop-color="#8dfff9" stop-opacity="0"/></radialGradient><linearGradient x1="210.62237" y1="331.14493" x2="158.54824" y2="383.21906" gradientUnits="userSpaceOnUse" id="color-20"><stop offset="0" stop-color="#0b0047" stop-opacity="0"/><stop offset="1" stop-color="#0b0047"/></linearGradient><linearGradient x1="210.62237" y1="331.14493" x2="158.54824" y2="383.21906" gradientUnits="userSpaceOnUse" id="color-21"><stop offset="0" stop-color="#000000" stop-opacity="0"/><stop offset="1" stop-color="#000000" stop-opacity="0"/></linearGradient><linearGradient x1="52.26497" y1="337.28379" x2="178.50399" y2="337.28379" gradientUnits="userSpaceOnUse" id="color-22"><stop offset="0" stop-color="#f1ffee"/><stop offset="1" stop-color="#08ffff"/></linearGradient><linearGradient x1="70.79058" y1="334.39385" x2="197.0296" y2="334.39385" gradientUnits="userSpaceOnUse" id="color-23"><stop offset="0" stop-color="#2dffff"/><stop offset="1" stop-color="#00ddf0"/></linearGradient></defs><g transform="translate(-12.42782,-189.09215)"><g data-paper-data="{&quot;isPaintingLayer&quot;:true}" fill-rule="nonzero" stroke-linejoin="miter" stroke-miterlimit="10" stroke-dasharray="" stroke-dashoffset="0" style="mix-blend-mode: normal"><g><path d="M71.44702,350.47727l5.41246,-5.41246l3.96077,-0.40973z" fill="#c9fdff" stroke="none" stroke-width="0" stroke-linecap="butt"/><path d="M62.75515,347.7756l5.41246,-5.41246l3.96077,-0.40974z" fill="#c9fdff" stroke="none" stroke-width="0" stroke-linecap="butt"/><g><path d="M28.15227,390.08853l-15.72445,-30.47959c0,0 38.01696,-10.30701 62.04313,-26.32463c49.73079,-33.15422 107.07575,-85.86936 128.06897,-98.75709c51.62407,-31.69199 37.95673,3.72705 37.95673,3.72705l-126.46609,126.4661z" fill="url(#color-1)" stroke="none" stroke-width="0" stroke-linecap="butt"/><path d="M145.87697,283.36467c0,0 42.74,-61.38827 79.52338,-62.14526c15.55748,-0.32017 1.7205,8.74142 2.59171,9.70948c1.04234,1.15822 -9.43277,-1.691 -13.16738,0.60177c-12.70272,7.79851 -68.94771,51.83401 -68.94771,51.83401z" fill="url(#color-2)" stroke="none" stroke-width="0" stroke-linecap="butt"/><path d="M246.59387,226.3591c1.91194,2.23554 -11.03203,-2.3713 -21.52188,6.6001c-10.48984,8.9714 -34.23534,6.73022 -36.14728,4.49468c-1.91194,-2.23554 11.88776,-6.18612 22.37761,-15.15752c10.48985,-8.97139 33.37961,1.82721 35.29155,4.06275z" fill="url(#color-3)" stroke="none" stroke-width="0" stroke-linecap="butt"/><path d="M109.73482,368.87351l176.24583,-176.24583l64.76504,64.76504l-176.24583,176.24583z" fill="#100069" stroke="#a7fff6" stroke-width="5" stroke-linecap="butt"/><path d="M354.04331,257.32704l-4.12423,4.12423l-24.1562,-24.1562l4.12423,-4.12423z" data-paper-data="{&quot;index&quot;:null}" fill="url(#color-4)" stroke="none" stroke-width="0" stroke-linecap="butt"/><path d="M281.61807,193.69032l4.12423,-4.12423l24.1562,24.1562l-4.12423,4.12423z" data-paper-data="{&quot;index&quot;:null}" fill="url(#color-5)" stroke="none" stroke-width="0" stroke-linecap="butt"/><path d="M285.73297,192.64579l-174.17417,175.02624" fill="none" stroke="#076f6a" stroke-width="5.5" stroke-linecap="round"/><path d="M148.53407,457.49092l202.7027,-199.6997" fill="none" stroke="#076f6a" stroke-width="5.5" stroke-linecap="round"/><path d="M109.91277,390.3306l179.36995,-179.36995l43.24486,43.24486l-179.36995,179.36995z" fill="#100069" stroke="#a7fff6" stroke-width="2.5" stroke-linecap="butt"/><path d="M331.18404,252.98749c0,0 -21.43722,-8.93399 -40.43403,-8.37939c-18.99681,0.5546 -45.92053,10.90046 -45.92053,10.90046l44.64308,-44.29876z" fill="url(#color-6)" stroke="none" stroke-width="0" stroke-linecap="butt"/><path d="M333.85528,254.09253l-44.29876,44.64308c0,0 10.34586,-26.92372 10.90046,-45.92053c0.5546,-18.99681 -8.37938,-40.43403 -8.37938,-40.43403z" data-paper-data="{&quot;index&quot;:null}" fill="url(#color-7)" stroke="none" stroke-width="0" stroke-linecap="butt"/><path d="M318.93478,269.85811l-4.25725,-35.25l19.07246,20.43478z" fill="url(#color-8)" stroke="none" stroke-width="0" stroke-linecap="butt"/><path d="M318.00001,254.35811c0,-7.04163 5.70837,-12.75 12.75,-12.75c7.04163,0 12.75,5.70837 12.75,12.75c0,7.04163 -5.70837,12.75 -12.75,12.75c-7.04163,0 -12.75,-5.70837 -12.75,-12.75z" fill="url(#color-9)" stroke="none" stroke-width="0" stroke-linecap="butt"/><path d="M289.90398,210.19687l20.43478,19.07246l-35.25,-4.25725z" data-paper-data="{&quot;index&quot;:null}" fill="url(#color-10)" stroke="none" stroke-width="0" stroke-linecap="butt"/><path d="M276.00001,213.85811c0,-7.04163 5.70837,-12.75 12.75,-12.75c7.04163,0 12.75,5.70837 12.75,12.75c0,7.04163 -5.70837,12.75 -12.75,12.75c-7.04163,0 -12.75,-5.70837 -12.75,-12.75z" fill="url(#color-11)" stroke="none" stroke-width="0" stroke-linecap="butt"/><path d="M127.6956,388.13197l152.63207,-152.63207l27.37877,27.37877l-152.63207,152.63207z" fill="#100069" stroke="#a7fff6" stroke-width="5" stroke-linecap="butt"/><path d="M145.81635,382.30847l135.42488,-135.42488l15.33747,15.33748l-135.42488,135.42488z" fill="#100069" stroke="#0b0047" stroke-width="10" stroke-linecap="butt"/><path d="M273.97908,248.82456v9.92848h-9.92847z" fill="#100069" stroke="#90ded6" stroke-width="2" stroke-linecap="butt"/><path d="M285.53632,278.48496v-9.92847h9.92847z" data-paper-data="{&quot;index&quot;:null}" fill="#100069" stroke="#90ded6" stroke-width="2" stroke-linecap="butt"/><path d="M278.35285,278.06061l-0.77329,8.58864l-8.58864,0.77328z" data-paper-data="{&quot;index&quot;:null}" fill="#100069" stroke="#7fc3bc" stroke-width="2" stroke-linecap="butt"/><path d="M259.96053,302.94533l0.77329,-8.58864l8.58863,-0.77328z" data-paper-data="{&quot;index&quot;:null}" fill="#100069" stroke="#366099" stroke-width="2" stroke-linecap="butt"/><path d="M254.69913,274.53376l0.77329,-8.58863l8.58863,-0.77329z" data-paper-data="{&quot;index&quot;:null}" fill="#100069" stroke="#7fc3bc" stroke-width="2" stroke-linecap="butt"/><path d="M248.71696,274.0302l-0.77329,8.58864l-8.58863,0.77328z" data-paper-data="{&quot;index&quot;:null}" fill="#100069" stroke="#366099" stroke-width="2" stroke-linecap="butt"/><path d="M228.82354,290.71087l37.9478,-37.9478l6.9447,6.94469l-37.9478,37.94781z" fill="url(#color-12)" stroke="url(#color-13)" stroke-width="0" stroke-linecap="butt"/><path d="M245.39862,307.63671l37.9478,-37.9478l6.9447,6.94469l-37.94781,37.94781z" fill="url(#color-14)" stroke="url(#color-15)" stroke-width="0" stroke-linecap="butt"/><path d="M278.55278,248.90596l1.9842,-6.94469l5.20852,5.20852z" fill="#100068" stroke="#a7fff6" stroke-width="1.5" stroke-linecap="butt"/><path d="M290.74548,251.17038l-1.9842,6.94469l-5.20852,-5.20852z" fill="#100068" stroke="#a7fff6" stroke-width="1.5" stroke-linecap="butt"/><path d="M299.60094,261.50729l-7.08122,1.42205l2.23943,-7.01728z" fill="#100068" stroke="#a7fff6" stroke-width="1.5" stroke-linecap="butt"/><path d="M282.32906,236.69256l4.9605,-4.9605l23.06631,23.06631l-4.9605,4.9605z" fill="url(#color-16)" stroke="none" stroke-width="0" stroke-linecap="butt"/><path d="M303.43002,260.85066l-4.9605,4.96049l-23.06631,-23.06631l4.96049,-4.9605z" fill="url(#color-17)" stroke="none" stroke-width="0" stroke-linecap="butt"/><path d="M279.3306,231.3643c2.80818,-2.57816 7.71672,1.05228 7.71672,1.05228l-9.34476,8.57934c0,0 -1.18014,-7.05346 1.62804,-9.63162z" fill="url(#color-18)" stroke="none" stroke-width="0" stroke-linecap="butt"/><path d="M308.76346,264.01213c-2.80818,2.57816 -7.71672,-1.05228 -7.71672,-1.05228l9.34476,-8.57934c0,0 1.18014,7.05346 -1.62804,9.63162z" data-paper-data="{&quot;index&quot;:null}" fill="url(#color-19)" stroke="none" stroke-width="0" stroke-linecap="butt"/><path d="M144.57268,388.41348l82.26508,-82.26508l8.3096,8.30961l-82.26508,82.26508z" fill="#00b5ff" stroke="none" stroke-width="0" stroke-linecap="butt"/><path d="M152.37517,377.046l52.07413,-52.07413l12.34612,12.34612l-52.07413,52.07413z" fill="url(#color-20)" stroke="url(#color-21)" stroke-width="0" stroke-linecap="butt"/><path d="M226.63175,308.4715l3.80991,3.80991" fill="none" stroke="#ffffff" stroke-width="2" stroke-linecap="round"/><path d="M231.48073,316.43768l-2.42449,-2.42449" fill="none" stroke="#ffffff" stroke-width="2" stroke-linecap="round"/><path d="M226.59516,311.89846l-1.0102,-1.0102" fill="none" stroke="#ffffff" stroke-width="2" stroke-linecap="round"/><g stroke="none" stroke-width="0" stroke-linecap="butt"><path d="M52.26497,434.21732c0,0 15.85248,-42.70107 54.10244,-101.44207c38.24996,-58.741 86.78933,-71.00944 86.78933,-71.00944c0,0 -61.27213,53.40013 -67.2135,74.69002c-9.94147,35.6236 -1.54168,97.76149 -1.54168,97.76149z" fill="url(#color-22)"/><path d="M70.79058,431.32738c0,0 15.85247,-42.70107 54.10244,-101.44207c38.24996,-58.741 31.43229,-53.0147 65.37377,-68.75517c33.94149,-15.74048 61.27978,26.22325 61.27978,26.22325c0,0 -76.51698,15.31831 -94.78846,39.53698c-17.92849,23.76405 -13.83096,104.43701 -13.83096,104.43701z" fill="url(#color-23)"/><path d="M161.33621,276.5845c0,0 32.21466,-33.76619 48.10653,-23.41013c18.71194,12.19377 8.48939,6.43135 8.48939,6.43135c0,0 -9.70861,-2.80432 -16.61245,-1.65823c-11.91684,1.97829 -39.98348,18.63701 -39.98348,18.63701z" fill="#ffffff"/><path d="M164.03021,274.12742l-44.4841,15.77352l58.58539,-23.63803l-52.90428,34.99688z" fill="#ffffff"/><path d="M166.5112,266.28129l-46.22225,9.54685l61.26594,-15.41068l-41.26695,33.99876z" fill="#ffffff"/><path d="M258.47307,294.98323c-1.33675,1.33675 -12.98601,-8.1452 -26.01934,-21.17853c-13.03333,-13.03334 -36.20715,-20.40388 -34.87041,-21.74063c0.65075,-0.65075 7.84596,-1.46309 15.68487,1.13478c8.26361,2.73862 17.33781,9.0765 24.02634,15.76504c13.03333,13.03334 22.51528,24.68259 21.17853,26.01934z" fill="#ffffff"/><path d="M256.62713,299.98323c-1.33675,1.33675 -12.98601,-8.1452 -26.01934,-21.17853c-13.03333,-13.03334 -36.20715,-20.40389 -34.87041,-21.74063c0.65075,-0.65075 7.84596,-1.46308 15.68487,1.13479c8.26361,2.73862 17.33781,9.0765 24.02634,15.76504c13.03333,13.03334 22.51528,24.68259 21.17853,26.01934z" fill="#ffffff"/><path d="M206.28788,267.39507l35.75886,22.04843l-37.73473,-6.02367c0,0 19.70244,0.31602 20.04519,-2.46375c0.31321,-2.54019 -18.06931,-13.561 -18.06931,-13.561z" fill="#ffffff"/></g><path d="M117.28314,365.90804l9.01665,-33.77655l-26.07066,27.49379l40.14146,-53.15081z" fill="#ffffff" stroke="none" stroke-width="0" stroke-linecap="butt"/><path d="M108.78549,354.25764c1.84873,-1.84873 10.60016,-9.48435 10.60016,-9.48435c0,0 -2.05659,12.09884 -3.90532,13.94757c-1.84873,1.84873 -8.54357,-2.61449 -6.69484,-4.46322z" fill="#ffffff" stroke="none" stroke-width="0" stroke-linecap="butt"/><path d="M137.79421,300.94504c0.847,-0.847 4.85649,-4.34528 4.85649,-4.34528c0,0 -0.94223,5.54312 -1.78923,6.39012c-0.847,0.847 -3.91426,-1.19784 -3.06726,-2.04484z" fill="#ffffff" stroke="none" stroke-width="0" stroke-linecap="butt"/><path d="M145.624,292.31057c0.847,-0.847 4.85648,-4.34528 4.85648,-4.34528c0,0 -0.94223,5.54312 -1.78923,6.39012c-0.847,0.847 -3.91426,-1.19784 -3.06726,-2.04484z" fill="#ffffff" stroke="none" stroke-width="0" stroke-linecap="butt"/><path d="M143.68449,275.48729l-21.51907,8.18736l-16.90496,6.13866z" fill="#ffffff" stroke="none" stroke-width="0" stroke-linecap="butt"/><path d="M217.74649,250.88741l7.96772,-13.62223l-13.36521,8.22474l10.18558,-10.18558l7.45367,-0.77107l-2.05619,6.16856z" fill="#ffffff" stroke="none" stroke-width="0" stroke-linecap="butt"/><path d="M209.35593,252.2014l5.41246,-5.41246l3.96077,-0.40973z" fill="#c9fdff" stroke="none" stroke-width="0" stroke-linecap="butt"/><path d="M200.66406,249.49973l5.41246,-5.41246l3.96077,-0.40974z" fill="#c9fdff" stroke="none" stroke-width="0" stroke-linecap="butt"/><path d="M169.87708,246.73499c0,0 26.13805,-14.9557 15.85341,-14.84967c-11.77537,0.1214 -82.64063,15.5382 -82.64063,15.5382l119.80387,-27.54112z" fill="#ffffff" stroke="none" stroke-width="0" stroke-linecap="butt"/><path d="M183.08413,233.07988l-53.54097,27.43131l-0.3383,-2.90002z" fill="#ffffff" stroke="none" stroke-width="0" stroke-linecap="butt"/><path d="M49.17813,356.95848l35.08542,-22.24929" fill="none" stroke="#00fff1" stroke-width="1.5" stroke-linecap="round"/><path d="M73.1389,350.11255l17.97058,-11.12465" fill="none" stroke="#00fff1" stroke-width="1.5" stroke-linecap="round"/><path d="M78.27335,341.55513l18.82632,-11.98039" fill="none" stroke="#00fff1" stroke-width="1.5" stroke-linecap="round"/><path d="M64.58148,351.82403l40.21987,-23.96077" fill="none" stroke="#ffffff" stroke-width="1.5" stroke-linecap="round"/><path d="M79.83758,349.16328l7.96772,-13.62223l-13.36521,8.22474l10.18558,-10.18558l7.45367,-0.77107l-2.05619,6.16856z" fill="#ffffff" stroke="none" stroke-width="0" stroke-linecap="butt"/></g></g></g></g></svg>