<svg version="1.1" xmlns="http://www.w3.org/2000/svg" xmlns:xlink="http://www.w3.org/1999/xlink" width="439.52065" height="230.73983" viewBox="0,0,439.52065,230.73983"><defs><linearGradient x1="304.32639" y1="258.6461" x2="416.52417" y2="258.6461" gradientUnits="userSpaceOnUse" id="color-1"><stop offset="0" stop-color="#38b5ff"/><stop offset="1" stop-color="#0018a4"/></linearGradient><linearGradient x1="269.28519" y1="262.53931" x2="387.12061" y2="373.49825" gradientUnits="userSpaceOnUse" id="color-2"><stop offset="0" stop-color="#000866" stop-opacity="0"/><stop offset="1" stop-color="#000866"/></linearGradient><linearGradient x1="358.236" y1="247.43517" x2="494.1364" y2="383.33557" gradientUnits="userSpaceOnUse" id="color-3"><stop offset="0" stop-color="#00ffee"/><stop offset="1" stop-color="#0015ff"/></linearGradient><radialGradient cx="232.48157" cy="350.13205" r="65.46368" gradientUnits="userSpaceOnUse" id="color-4"><stop offset="0" stop-color="#00ffee"/><stop offset="1" stop-color="#00ffee" stop-opacity="0"/></radialGradient><linearGradient x1="205.83257" y1="254.44653" x2="87.99715" y2="365.40547" gradientUnits="userSpaceOnUse" id="color-5"><stop offset="0" stop-color="#00085b" stop-opacity="0"/><stop offset="1" stop-color="#00085b"/></linearGradient><linearGradient x1="35.05959" y1="292.91576" x2="230.93519" y2="292.91576" gradientUnits="userSpaceOnUse" id="color-6"><stop offset="0" stop-color="#00908d"/><stop offset="1" stop-color="#00908d" stop-opacity="0"/></linearGradient><linearGradient x1="100.00781" y1="322.2971" x2="230.93519" y2="322.2971" gradientUnits="userSpaceOnUse" id="color-7"><stop offset="0" stop-color="#00908d"/><stop offset="1" stop-color="#00908d" stop-opacity="0"/></linearGradient><linearGradient x1="370.10995" y1="322.81256" x2="230.93518" y2="322.81256" gradientUnits="userSpaceOnUse" id="color-8"><stop offset="0" stop-color="#00908d"/><stop offset="1" stop-color="#00908d" stop-opacity="0"/></linearGradient><radialGradient cx="232.48157" cy="257.34887" r="28.35042" gradientUnits="userSpaceOnUse" id="color-9"><stop offset="0" stop-color="#a8fefb"/><stop offset="1" stop-color="#a8fefb" stop-opacity="0"/></radialGradient></defs><g transform="translate(-28.05457,-188.16342)"><g data-paper-data="{&quot;isPaintingLayer&quot;:true}" fill-rule="nonzero" stroke-linejoin="miter" stroke-miterlimit="10" stroke-dasharray="" stroke-dashoffset="0" style="mix-blend-mode: normal"><path d="M304.32639,282.83554c0,0 -19.33482,-60.06818 -17.11699,-76.20848c0.66811,-4.8622 18.13154,-14.70935 25.54688,-17.3647c8.69891,-3.11498 7.48768,1.3818 7.48768,1.3818c0,0 1.93198,2.12744 -2.13861,7.22686c-5.14684,6.44768 -16.51248,16.60743 -16.04621,21.69731c1.61384,17.61709 21.73252,37.76384 37.78732,57.25576c29.18014,35.42721 127.72876,115.29024 127.72876,115.29024l-31.53153,0.33082z" fill="url(#color-1)" stroke="none" stroke-width="0" stroke-linecap="butt"/><path d="M318.66154,196.19481l6.95677,11.94693l-19.01483,-12.22672c0,0 3.65246,-6.49715 12.63329,-7.1204c5.24755,-0.36417 15.12507,4.18126 18.43081,8.6207c6.41412,8.61386 16.70261,16.52247 16.70261,16.52247z" fill="#ffffff" stroke="none" stroke-width="0" stroke-linecap="butt"/><path d="M34.29431,386.70669l198.1982,-189.18919l211.71172,189.18919z" fill="#00055d" stroke="#a8fffc" stroke-width="5" stroke-linecap="butt"/><path d="M288.7645,299.7486l0.89787,-34.62036l34.23923,30.38957z" data-paper-data="{&quot;index&quot;:null}" fill="#000a85" stroke="#00fff5" stroke-width="3" stroke-linecap="butt"/><path d="M343.24886,352.48035l0.89787,-34.62035l34.23923,30.38957z" data-paper-data="{&quot;index&quot;:null}" fill="#000a85" stroke="#00fff5" stroke-width="3" stroke-linecap="butt"/><path d="M332.14899,305.33429l-0.89787,34.62035l-34.23923,-30.38957z" data-paper-data="{&quot;index&quot;:null}" fill="#000a85" stroke="#00fff5" stroke-width="3" stroke-linecap="butt"/><path d="M374.04583,387.38331l-117.83542,-110.95894l26.14956,-27.77013l117.83542,110.95894z" data-paper-data="{&quot;index&quot;:null}" fill="url(#color-2)" stroke="none" stroke-width="0" stroke-linecap="butt"/><path d="M262.60825,228.9488c-23.94565,-76.54758 35.18559,14.21288 74.7516,65.19315c12.97572,16.71904 39.9273,31.83965 39.9273,31.83965l83.34785,63.82833l-2.06629,29.09332c0,0 -164.16181,-88.30301 -195.96046,-189.95445z" fill="url(#color-3)" stroke="none" stroke-width="0" stroke-linecap="butt"/><path d="M267.02702,247.06705c0,0 -29.37827,-54.98001 -7.5075,-55.55555c21.87077,-0.57555 66.06606,91.5916 66.06606,91.5916l-54.05406,-57.05706z" fill="#ffffff" stroke="none" stroke-width="0" stroke-linecap="butt"/><path d="M302.32462,298.53382l-27.59771,-59.64434l52.29821,55.19542l-34.49714,-23.14879z" fill="#ffffff" stroke="none" stroke-width="0" stroke-linecap="butt"/><path d="M347.12648,288.88269c0,0 9.80964,-0.11814 12.11768,4.34407c2.30804,4.46221 0.49342,4.63744 -1.60045,3.88681c-2.09386,-0.75063 -10.51724,-8.23089 -10.51724,-8.23089z" fill="#ffffff" stroke="none" stroke-width="0" stroke-linecap="butt"/><path d="M354.63084,297.48667c0,0 8.89445,4.13906 9.04392,9.16062c0.14947,5.02155 -1.56225,4.39416 -3.12498,2.81126c-1.56273,-1.5829 -5.91893,-11.97188 -5.91893,-11.97188z" fill="#ffffff" stroke="none" stroke-width="0" stroke-linecap="butt"/><path d="M336.47876,288.41562c0,0 9.67827,1.60442 11.1678,6.4023c1.48953,4.79788 -0.3277,4.65209 -2.25743,3.54581c-1.92973,-1.10628 -8.91037,-9.94811 -8.91037,-9.94811z" fill="#ffffff" stroke="none" stroke-width="0" stroke-linecap="butt"/><path d="M320.21423,256.21373l-41.39657,-46.57113l75.8937,29.32256l-64.68213,-21.56071z" fill="#ffffff" stroke="none" stroke-width="0" stroke-linecap="butt"/><path d="M349.09009,324.40756l-32.32556,-22.48512l26.44353,8.5623l27.02703,25.93483z" fill="#ffffff" stroke="none" stroke-width="0" stroke-linecap="butt"/><path d="M335.13982,243.92872l-32.32345,-16.66393l41.37384,15.57519z" fill="#ffffff" stroke="none" stroke-width="0" stroke-linecap="butt"/><path d="M309.90069,199.62882c-1.54397,-1.2157 -6.53159,-3.9361 -6.53159,-3.9361c0,0 10.65963,-3.80147 12.49105,0.72508c1.83142,4.52654 -7.78434,10.90804 -7.78434,10.90804c0,0 3.36885,-6.48132 1.82488,-7.69702z" fill="#ffffff" stroke="none" stroke-width="0" stroke-linecap="butt"/><path d="M308.41666,199.24496l-1.92,7.04l-5.12,-8z" fill="#ffffff" stroke="none" stroke-width="0" stroke-linecap="butt"/><path d="M302.44498,204.81849c0,0 -2.45978,-5.08043 -1.8,-6.4c0.91925,-1.83849 6.8,-3.6 6.8,-3.6" fill="none" stroke="#ffffff" stroke-width="1.5" stroke-linecap="round"/><path d="M327.39122,204.48861c0,0 9.80964,-0.11814 12.11768,4.34407c2.30804,4.46221 0.49342,4.63744 -1.60045,3.88681c-2.09386,-0.75063 -10.51724,-8.23089 -10.51724,-8.23089z" fill="#ffffff" stroke="none" stroke-width="0" stroke-linecap="butt"/><path d="M347.57954,204.28119c0,0 9.80964,-0.11814 12.11768,4.34407c2.30804,4.46221 0.49342,4.63744 -1.60045,3.88681c-2.09386,-0.75063 -10.51724,-8.23089 -10.51724,-8.23089z" fill="#ffffff" stroke="none" stroke-width="0" stroke-linecap="butt"/><path d="M99.08791,385.52115l131.40338,-125.43049l140.3627,125.4305z" fill="#00055d" stroke="#a8fffc" stroke-width="5" stroke-linecap="butt"/><path d="M182.48175,306.31777l17.52571,17.52571" fill="none" stroke="#00fff5" stroke-width="5" stroke-linecap="round"/><path d="M279.234,305.13223l-17.52571,17.52571" fill="none" stroke="#00fff5" stroke-width="5" stroke-linecap="round"/><path d="M167.01788,350.13205c0,-36.1546 29.3091,-65.46369 65.46369,-65.46369c36.1546,0 65.46368,29.30909 65.46368,65.46369c0,36.1546 -29.30909,65.46369 -65.46368,65.46369c-36.15459,0 -65.46369,-29.30909 -65.46369,-65.46368z" fill="url(#color-4)" stroke="none" stroke-width="0" stroke-linecap="butt"/><path d="M196.91469,384.66801v-63.9173h71.13377v63.9173z" fill="#00067b" stroke="#00f0ff" stroke-width="5" stroke-linecap="butt"/><path d="M87.01259,349.43512l34.23923,-30.38957l0.89787,34.62035z" fill="#000a85" stroke="#00fff5" stroke-width="3" stroke-linecap="butt"/><path d="M168.38666,310.75061l-34.23923,30.38957l-0.89787,-34.62035z" data-paper-data="{&quot;index&quot;:null}" fill="#000a85" stroke="#00fff5" stroke-width="3" stroke-linecap="butt"/><path d="M141.49695,296.70336l34.23923,-30.38957l0.89787,34.62036z" data-paper-data="{&quot;index&quot;:null}" fill="#000a85" stroke="#00fff5" stroke-width="3" stroke-linecap="butt"/><path d="M74.92237,351.52041l117.83542,-110.95894l26.14956,27.77013l-117.83542,110.95894z" fill="url(#color-5)" stroke="none" stroke-width="0" stroke-linecap="butt"/><path d="M35.05959,386.72986l195.8756,-187.6282" fill="none" stroke="url(#color-6)" stroke-width="5" stroke-linecap="round"/><path d="M100.00781,383.63709l130.92737,-122.67998v57.73175" fill="none" stroke="url(#color-7)" stroke-width="5" stroke-linecap="round"/><path d="M370.10995,384.66801l-139.17477,-123.7109" data-paper-data="{&quot;index&quot;:null}" fill="none" stroke="url(#color-8)" stroke-width="5" stroke-linecap="round"/><path d="M198.97653,365.08045v-18.55664h67.01007v18.55664z" fill="#006bff" stroke="none" stroke-width="0" stroke-linecap="butt"/><path d="M205.16208,349.61659h19.58756" fill="none" stroke="#ffffff" stroke-width="2" stroke-linecap="round"/><path d="M219.59502,353.74028h22.68033" fill="none" stroke="#ffffff" stroke-width="2" stroke-linecap="round"/><path d="M231.81148,350.49289h22.68034" fill="none" stroke="#ffffff" stroke-width="2" stroke-linecap="round"/><path d="M201.19411,252.04291l21.96761,5.8694l-16.62833,16.50243z" fill="#000970" stroke="#a8fefb" stroke-width="2.5" stroke-linecap="butt"/><path d="M255.88414,272.46771l-18.03681,-14.95009l21.35506,-7.80942z" data-paper-data="{&quot;index&quot;:null}" fill="#000970" stroke="#a8fefb" stroke-width="2.5" stroke-linecap="butt"/><path d="M238.88332,229.68258l18.65993,12.99356l-21.2511,9.86015z" data-paper-data="{&quot;index&quot;:null}" fill="#000970" stroke="#a8fefb" stroke-width="2.5" stroke-linecap="butt"/><path d="M228.57609,253.14093l-21.50768,-9.28717l18.30506,-13.48891z" data-paper-data="{&quot;index&quot;:null}" fill="#000970" stroke="#a8fefb" stroke-width="2.5" stroke-linecap="butt"/><path d="M231.96611,259.92618v-60.82453" fill="none" stroke="#a8fefb" stroke-width="2.5" stroke-linecap="round"/><path d="M204.13115,257.34887c0,-15.6575 12.69291,-28.35042 28.35042,-28.35042c15.6575,0 28.35042,12.69291 28.35042,28.35042c0,15.6575 -12.69291,28.35042 -28.35042,28.35042c-15.6575,0 -28.35042,-12.69291 -28.35042,-28.35042z" fill="url(#color-9)" stroke="none" stroke-width="0" stroke-linecap="butt"/></g></g></svg>