<svg version="1.1" xmlns="http://www.w3.org/2000/svg" xmlns:xlink="http://www.w3.org/1999/xlink" width="675.81054" height="865.32731" viewBox="0,0,675.81054,865.32731"><g transform="translate(97.46,252.15057)"><g data-paper-data="{&quot;isPaintingLayer&quot;:true}" fill-rule="nonzero" stroke="none" stroke-width="1" stroke-linecap="butt" stroke-linejoin="miter" stroke-miterlimit="10" stroke-dasharray="" stroke-dashoffset="0" style="mix-blend-mode: normal"><path d="M219.83,-239.1c1.88,-6.09 6.73,-11.63 13.25,-12.7c4.08,-0.43 8.63,-0.89 12.28,1.43c3.43,2.06 6.32,5.05 8.59,8.33c101.53,224.47 203.1,448.93 304.7,673.38c6.24,14.28 13.11,28.28 19.13,42.66c0.87,5.05 1.03,10.69 -1.6,15.26c-2.62,3.35 -5.79,6.83 -10.19,7.58c-4.53,0.77 -9.44,0.86 -13.69,-1.09c-47.67,-19.35 -95.18,-39.12 -142.85,-58.47c14.29,29.62 29.23,58.96 43.86,88.42c7.19,15.61 15.02,30.91 22.67,46.3c2.48,4.58 2.42,9.95 1.83,14.98c-1.71,5.5 -6.29,10.11 -11.8,11.83c-3.79,0.53 -7.79,0.73 -11.48,-0.42c-7.49,-2.88 -14.69,-6.45 -21.86,-10.03c-7.3,-2.85 -14.04,-6.89 -21.33,-9.73c-8.39,-4.45 -17.25,-7.9 -25.68,-12.28c-7.51,-2.97 -14.48,-7.07 -21.99,-10.03c-6.83,-3.75 -14.2,-6.33 -21.04,-10.03c-4.2,-2.29 -8.77,-3.77 -13.01,-5.98c-4.02,-2.03 -8,-4.15 -12.21,-5.76c-17.45,-8.24 -34.92,-16.41 -52.42,-24.55c-8.21,-4.28 -16.87,-7.59 -25,-12.01c-15.2,8.37 -30.86,15.86 -46.34,23.69c-12.24,7.03 -25.13,12.86 -37.67,19.34c-14.28,8.34 -29.68,14.6 -43.96,22.95c-12.01,6 -24.02,12.02 -36.02,18.05c-14.31,8.32 -29.7,14.62 -44,22.96c-5.66,2.76 -11.15,6.02 -17.3,7.61c-6.86,1.8 -14.78,-0.58 -18.79,-6.61c-3.25,-4.21 -3.6,-9.88 -2.72,-14.94c0.97,-4.21 3.41,-7.83 5.07,-11.76c3.14,-7.9 7.51,-15.23 10.99,-22.97c3.05,-7.68 7.25,-14.82 10.7,-22.32c3.45,-8.59 8.12,-16.62 12.01,-25.02c4.03,-10.02 9.74,-19.26 13.73,-29.31c6.67,-12.6 11.95,-25.86 18.79,-38.37c-36.52,15.65 -73.26,30.85 -109.82,46.45c-9.04,3.31 -17.59,7.8 -26.67,11.02c-5.03,0.92 -10.68,1.05 -15.25,-1.59c-4.54,-3.63 -9.59,-7.95 -9.94,-14.2c-1.18,-6.9 1.87,-13.32 4.85,-19.31c92.91,-209.08 185.69,-418.21 278.65,-627.28c10.99,-25.25 22.38,-50.3 33.53,-75.48M237.4,-192.36c-1.05,3.08 -2.23,6.11 -3.72,9c-90.16,202.89 -180.24,405.8 -270.36,608.7c-3.62,8.25 -7.56,16.39 -10.86,24.77c8.17,-2.73 15.74,-6.89 23.84,-9.81c34.64,-14.79 69.42,-29.31 104.17,-43.88c48.23,-20.52 96.61,-40.72 144.91,-61.11c5.29,-3.13 11.51,-4.23 17.59,-3.52c4.91,0.16 9.07,3 13.55,4.65c8.55,3.36 17.09,6.78 25.49,10.51c28.19,11.44 56.38,22.87 84.44,34.64c53.64,21.67 107.06,43.87 160.65,65.68c-85.57,-188.9 -170.98,-377.88 -256.51,-566.79c-11.08,-24.27 -21.78,-48.72 -33.19,-72.84M112.62,417.81c-1.1,0.37 -2.03,1.1 -2.44,2.21c-21.36,44.68 -42.78,89.34 -64.15,134.01c-1.25,2.69 -2.77,5.3 -3.32,8.26c1.45,-0.34 2.9,-0.71 4.22,-1.41c61.2,-31.42 122.39,-62.83 183.61,-94.19c5.52,-2.99 12.29,-2.92 17.88,-0.13c60.33,28.14 120.53,56.57 180.89,84.64c-2.84,-7.66 -7.09,-14.72 -10.51,-22.13c-18.03,-36.34 -35.92,-72.74 -53.94,-109.09c-1.25,-2.2 -1.66,-5.43 -4.5,-6.14c-40.25,-16.49 -80.48,-33.02 -120.75,-49.48c-42.37,17.72 -84.64,35.68 -126.99,53.45z" fill="#000000"/><path d="M237.4,-192.36c11.41,24.12 22.11,48.57 33.19,72.84c85.53,188.91 170.94,377.89 256.51,566.79c-53.59,-21.81 -107.01,-44.01 -160.65,-65.68c-28.06,-11.77 -56.25,-23.2 -84.44,-34.64c-8.4,-3.73 -16.94,-7.15 -25.49,-10.51c-4.48,-1.65 -8.64,-4.49 -13.55,-4.65c-6.08,-0.71 -12.3,0.39 -17.59,3.52c-48.3,20.39 -96.68,40.59 -144.91,61.11c-34.75,14.57 -69.53,29.09 -104.17,43.88c-8.1,2.92 -15.67,7.08 -23.84,9.81c3.3,-8.38 7.24,-16.52 10.86,-24.77c90.12,-202.9 180.2,-405.81 270.36,-608.7c1.49,-2.89 2.67,-5.92 3.72,-9z" fill="#afafaf"/><path d="M112.62,417.81c42.35,-17.77 84.62,-35.73 126.99,-53.45c40.27,16.46 80.5,32.99 120.75,49.48c2.84,0.71 3.25,3.94 4.5,6.14c18.02,36.35 35.91,72.75 53.94,109.09c3.42,7.41 7.67,14.47 10.51,22.13c-60.36,-28.07 -120.56,-56.5 -180.89,-84.64c-5.59,-2.79 -12.36,-2.86 -17.88,0.13c-61.22,31.36 -122.41,62.77 -183.61,94.19c-1.32,0.7 -2.77,1.07 -4.22,1.41c0.55,-2.96 2.07,-5.57 3.32,-8.26c21.37,-44.67 42.79,-89.33 64.15,-134.01c0.41,-1.11 1.34,-1.84 2.44,-2.21z" fill="#ffffff"/></g></g></svg>