<svg xmlns="http://www.w3.org/2000/svg" width="651" height="862.8948364257812" viewBox="-0.5 5.476945877075195 651 862.8948364257812" version="1.1" xml:space="preserve">
  <g>
    <g id="#000000ff">
      <path fill="#000000" opacity="1.00" d="M 158.43 10.34 C 162.95 5.67 170.64 4.64 176.28 7.84 C 180.38 9.98 182.67 14.19 185.24 17.83 C 197.22 35.14 209.27 52.41 221.28 69.71 C 223.66 73.37 226.09 77.03 227.89 81.01 C 230.18 86.53 228.27 92.99 224.16 97.11 C 211.74 110.08 199.26 123.00 186.85 135.99 C 206.72 152.91 226.60 169.81 246.48 186.71 C 250.35 189.94 252.50 195.11 251.73 200.13 C 251.34 204.55 248.50 208.32 245.03 210.89 C 216.55 232.28 188.11 253.75 159.64 275.15 C 175.47 310.37 191.42 345.53 207.27 380.74 C 246.47 321.29 285.75 261.87 325.00 202.45 C 364.26 261.87 403.51 321.30 442.75 380.75 C 458.56 345.52 474.54 310.37 490.36 275.15 C 461.72 253.59 433.07 232.04 404.44 210.46 C 399.05 206.64 396.66 199.26 399.02 193.06 C 400.64 188.37 404.95 185.55 408.53 182.46 C 426.74 166.97 444.95 151.49 463.15 135.99 C 450.73 123.00 438.25 110.07 425.82 97.09 C 421.53 92.81 419.71 85.95 422.40 80.35 C 425.10 74.94 428.52 69.92 432.00 64.99 C 444.20 47.48 456.33 29.93 468.54 12.44 C 472.49 6.69 480.56 4.32 486.94 7.21 C 492.21 9.32 494.86 14.67 498.00 19.02 C 545.29 87.02 592.63 155.00 639.93 223.00 C 643.36 228.11 647.24 232.97 650.00 238.50 L 650.00 247.34 C 627.27 347.88 604.74 448.46 582.06 549.00 C 581.29 552.41 579.42 555.49 576.75 557.75 C 571.55 562.29 566.59 567.09 561.64 571.89 C 570.58 593.06 579.52 614.24 588.47 635.42 C 595.76 652.43 602.64 669.62 610.29 686.47 C 611.03 688.39 611.12 690.59 610.35 692.54 C 580.36 746.84 550.67 801.37 520.84 855.78 C 518.35 860.00 516.50 865.46 511.52 867.34 C 504.41 869.57 494.74 864.21 495.49 856.05 C 495.72 801.40 496.16 746.75 496.46 692.10 C 484.03 684.46 471.63 676.76 459.22 669.09 C 414.47 711.55 369.74 754.04 325.00 796.52 C 280.26 754.04 235.53 711.56 190.79 669.09 C 178.37 676.76 165.97 684.46 153.53 692.11 C 153.85 746.74 154.27 801.38 154.52 856.01 C 155.25 863.71 146.76 868.80 139.89 867.73 C 136.23 867.12 133.71 864.07 132.03 861.00 C 102.77 807.57 73.53 754.12 44.22 700.71 C 42.04 696.50 37.85 692.28 39.49 687.14 C 56.10 648.87 72.03 610.28 88.36 571.88 C 83.38 567.07 78.41 562.26 73.20 557.70 C 70.56 555.47 68.71 552.41 67.95 549.04 C 45.27 448.48 22.74 347.89 0.00 247.35 L 0.00 238.59 C 1.79 234.72 4.35 231.28 6.75 227.78 C 55.03 158.37 103.34 88.98 151.62 19.57 C 153.84 16.46 155.77 13.11 158.43 10.34 M 167.40 48.39 C 122.03 113.36 76.89 178.51 31.56 243.50 C 30.08 245.31 30.23 247.70 30.60 249.85 C 52.52 345.87 73.70 442.06 95.69 538.06 C 105.48 548.02 116.12 557.07 125.89 567.05 C 133.26 573.35 139.98 580.35 146.97 587.06 C 155.51 594.16 162.75 602.66 171.26 609.80 C 178.02 616.01 184.17 622.87 191.22 628.76 C 198.01 634.99 204.18 641.88 211.26 647.79 C 216.79 652.92 222.01 658.39 227.51 663.55 C 234.23 669.11 240.09 675.60 246.47 681.52 C 253.51 687.42 259.72 694.22 266.43 700.47 C 273.52 706.41 279.75 713.27 286.52 719.55 C 293.56 725.44 299.75 732.26 306.47 738.51 C 313.01 743.94 318.74 750.26 324.99 756.01 C 331.24 750.29 336.94 743.97 343.47 738.56 C 350.23 732.27 356.46 725.42 363.55 719.49 C 370.26 713.24 376.45 706.44 383.49 700.55 C 390.24 694.28 396.46 687.43 403.53 681.51 C 409.91 675.60 415.76 669.12 422.46 663.57 C 429.20 657.31 435.39 650.46 442.47 644.57 C 449.22 638.29 455.44 631.43 462.52 625.52 C 469.25 619.25 475.46 612.43 482.52 606.52 C 489.24 600.27 495.45 593.45 502.50 587.54 C 509.23 581.28 515.45 574.47 522.49 568.55 C 528.22 563.26 533.51 557.49 539.38 552.35 C 543.23 549.23 546.53 545.52 550.15 542.15 C 552.20 540.14 554.70 538.21 555.14 535.16 C 576.53 439.76 598.04 344.36 619.52 248.99 C 619.83 247.07 619.67 245.05 618.43 243.48 C 573.11 178.51 527.99 113.39 482.64 48.45 C 482.04 46.88 479.92 46.95 479.32 48.46 C 470.95 60.51 462.36 72.42 454.30 84.67 C 465.89 95.48 476.12 107.60 487.41 118.70 C 491.57 123.25 496.82 127.13 499.23 132.98 C 502.26 139.43 498.53 147.40 492.43 150.54 C 487.38 153.22 483.49 157.46 479.07 160.98 C 464.80 173.28 450.26 185.27 436.10 197.69 C 462.41 217.06 488.22 237.12 514.48 256.59 C 519.31 260.01 522.76 265.26 523.20 271.25 C 522.23 277.13 519.30 282.40 516.90 287.79 C 500.96 323.16 484.97 358.51 469.01 393.88 C 464.98 402.47 461.72 411.51 456.28 419.36 C 453.73 423.01 449.39 425.07 445.03 425.47 C 439.75 425.56 434.89 422.34 432.17 417.93 C 418.85 397.29 404.83 377.09 391.63 356.38 C 369.93 324.01 348.77 291.29 327.06 258.93 C 326.33 258.04 325.37 257.39 324.47 256.71 C 313.88 272.39 303.52 288.21 293.00 303.94 C 279.58 325.08 265.17 345.57 251.75 366.71 C 241.63 381.93 231.48 397.14 221.41 412.39 C 218.43 417.04 215.62 422.59 210.04 424.52 C 203.56 427.23 195.73 423.56 192.54 417.56 C 188.08 410.78 185.34 403.11 181.83 395.83 C 165.77 359.98 149.47 324.24 133.39 288.40 C 130.89 282.82 127.83 277.36 126.79 271.26 C 127.25 265.74 130.10 260.77 134.47 257.41 C 146.23 248.55 158.03 239.74 169.79 230.89 C 184.30 219.46 199.44 208.83 213.92 197.36 C 198.51 184.71 183.52 171.56 168.24 158.75 C 164.88 155.72 161.48 152.65 157.47 150.48 C 152.61 147.93 149.47 142.51 149.65 137.04 C 150.70 129.08 157.56 124.12 162.65 118.64 C 173.92 107.55 184.15 95.46 195.70 84.65 C 187.58 72.40 179.03 60.42 170.60 48.38 C 170.03 46.88 168.00 46.96 167.40 48.39 M 102.92 586.46 C 100.59 593.83 96.95 600.70 94.19 607.92 C 90.71 615.63 87.73 623.55 84.25 631.26 C 83.42 633.22 82.66 635.21 81.70 637.12 C 81.61 637.55 81.43 638.39 81.33 638.81 C 80.48 640.54 79.64 642.28 78.82 644.04 C 78.10 646.17 77.18 648.23 76.19 650.25 C 75.85 651.13 75.53 652.03 75.25 652.94 C 74.54 654.36 73.87 655.80 73.19 657.24 C 72.82 658.12 72.50 659.02 72.22 659.94 C 68.35 669.13 64.34 678.27 60.62 687.52 C 60.41 688.54 60.51 689.60 60.49 690.66 C 62.50 693.11 63.81 696.02 65.21 698.85 C 67.63 703.11 70.10 707.35 72.23 711.78 C 74.32 715.02 76.04 718.47 77.84 721.88 C 79.92 725.02 81.50 728.45 83.22 731.79 C 85.50 735.31 87.35 739.07 89.24 742.81 C 91.09 745.69 92.71 748.72 94.20 751.81 C 96.45 755.82 98.79 759.77 100.85 763.89 C 102.93 767.03 104.51 770.47 106.23 773.82 C 110.41 781.04 114.39 788.38 118.23 795.79 C 120.34 799.03 122.05 802.49 123.85 805.91 C 125.54 808.41 126.86 811.13 128.20 813.83 C 129.91 816.98 131.77 820.05 133.53 823.18 C 133.82 822.72 134.39 821.80 134.67 821.34 C 134.49 779.22 134.46 737.09 134.52 694.96 C 134.75 691.20 132.71 687.61 133.89 683.86 C 134.92 681.44 136.55 679.33 138.87 678.02 C 141.20 676.68 143.58 675.45 145.92 674.13 C 147.54 673.05 149.21 672.07 150.91 671.13 C 151.91 670.42 152.93 669.74 153.96 669.07 C 155.58 668.04 157.24 667.07 158.92 666.13 C 161.52 664.35 164.19 662.65 166.93 661.10 C 168.55 660.06 170.19 659.06 171.87 658.12 C 173.02 657.38 174.19 656.67 175.38 656.00 C 175.50 655.58 175.72 654.73 175.84 654.31 C 170.21 648.87 164.62 643.39 159.04 637.92 C 150.45 630.88 143.28 622.30 134.74 615.22 C 127.97 608.99 121.83 602.10 114.74 596.23 C 111.41 593.05 108.06 589.89 104.92 586.54 C 104.25 586.50 103.59 586.48 102.92 586.46 M 545.10 586.51 C 540.61 591.20 535.98 595.78 530.97 599.91 C 525.72 605.01 520.56 610.21 515.24 615.25 C 506.70 622.32 499.54 630.90 490.96 637.92 C 485.37 643.39 479.80 648.87 474.17 654.29 C 474.28 654.72 474.50 655.57 474.61 656.00 C 475.78 656.66 476.95 657.37 478.10 658.10 C 479.78 659.05 481.43 660.06 483.07 661.10 C 485.80 662.64 488.45 664.33 491.04 666.11 C 492.73 667.05 494.41 668.04 496.05 669.08 C 497.06 669.75 498.08 670.43 499.09 671.13 C 500.78 672.07 502.46 673.05 504.07 674.13 C 506.41 675.45 508.79 676.68 511.12 678.02 C 513.44 679.32 515.08 681.43 516.10 683.87 C 517.29 687.63 515.23 691.25 515.48 695.03 C 515.56 737.10 515.48 779.17 515.35 821.23 C 515.64 821.71 516.21 822.68 516.50 823.16 C 517.89 820.68 519.26 818.21 520.77 815.81 C 522.50 812.46 524.06 809.01 526.17 805.88 C 526.69 804.84 527.23 803.83 527.75 802.81 C 528.81 800.78 529.89 798.75 531.17 796.85 C 531.69 795.82 532.23 794.82 532.75 793.81 C 534.30 790.73 535.91 787.70 537.77 784.80 C 539.65 781.08 541.49 777.32 543.77 773.82 C 545.49 770.47 547.07 767.03 549.16 763.88 C 551.21 759.77 553.54 755.83 555.78 751.83 C 561.15 741.80 566.57 731.78 572.16 721.88 C 574.21 717.78 576.54 713.84 578.78 709.85 C 580.29 706.74 581.90 703.69 583.77 700.80 C 585.59 697.36 587.05 693.70 589.51 690.66 C 589.92 688.14 588.87 685.87 587.68 683.75 C 587.58 683.34 587.39 682.54 587.30 682.13 C 586.34 680.22 585.58 678.23 584.75 676.27 C 583.01 672.45 581.59 668.49 579.66 664.77 C 579.57 664.36 579.39 663.55 579.30 663.14 C 578.33 661.22 577.57 659.22 576.78 657.24 C 576.09 655.77 575.37 654.32 574.65 652.89 C 574.57 652.45 574.41 651.58 574.33 651.14 C 572.90 648.60 571.82 645.91 570.77 643.22 C 567.99 636.94 565.44 630.56 562.80 624.22 C 562.09 622.73 561.36 621.25 560.63 619.79 C 560.56 619.36 560.42 618.51 560.35 618.08 C 559.81 617.06 559.29 616.04 558.79 615.02 C 556.92 610.21 554.93 605.45 552.66 600.82 C 552.58 600.39 552.41 599.53 552.32 599.10 C 550.18 595.07 548.45 590.84 547.09 586.49 C 546.42 586.49 545.76 586.50 545.10 586.51 Z" stroke-width="1"/>
      <path fill="#000000" opacity="1.00" d="M 316.18 418.10 C 322.22 417.16 328.45 417.18 334.49 418.20 C 367.44 420.97 397.34 442.83 411.95 472.21 C 419.18 486.00 422.69 501.48 423.51 516.95 C 424.09 545.03 413.53 573.58 393.43 593.42 C 375.14 612.60 348.46 623.16 322.05 622.51 C 304.49 621.68 287.04 616.37 272.40 606.55 C 246.33 589.51 229.42 559.82 226.96 528.88 C 224.12 497.76 236.15 465.43 259.09 444.07 C 274.52 429.43 294.92 419.83 316.18 418.10 M 301.03 440.12 C 297.01 441.66 293.01 443.23 289.18 445.18 C 287.17 446.46 285.14 447.71 283.06 448.88 C 282.05 449.56 281.04 450.23 280.03 450.89 C 274.55 455.11 269.55 459.86 264.90 464.98 C 255.75 476.66 249.04 490.43 246.64 505.14 C 246.42 507.20 246.37 509.31 245.61 511.29 C 245.43 517.09 245.43 522.90 245.61 528.70 C 246.76 533.08 246.78 537.71 248.15 542.07 C 249.36 547.92 252.17 553.24 254.22 558.81 C 260.63 570.54 269.14 581.23 280.02 589.10 C 281.03 589.76 282.03 590.42 283.03 591.11 C 284.40 592.00 285.77 592.91 287.16 593.80 C 289.45 594.93 291.74 596.06 294.04 597.19 C 311.29 604.69 331.10 605.65 349.00 599.87 C 351.62 598.89 354.20 597.80 356.81 596.80 C 359.18 595.62 361.55 594.41 363.91 593.19 C 364.91 592.47 365.94 591.77 366.97 591.08 C 367.96 590.41 368.97 589.76 369.98 589.11 C 380.86 581.22 389.38 570.54 395.79 558.79 C 397.46 554.50 399.27 550.26 400.89 545.96 C 401.29 544.68 401.53 543.37 401.82 542.08 C 403.25 537.72 403.22 533.09 404.39 528.71 C 404.57 522.90 404.57 517.09 404.39 511.29 C 403.32 508.59 403.70 505.65 402.94 502.90 C 400.29 489.01 393.77 476.07 385.10 464.98 C 380.45 459.86 375.45 455.11 369.97 450.90 C 368.95 450.23 367.93 449.56 366.94 448.87 C 364.86 447.71 362.84 446.46 360.82 445.20 C 359.18 444.39 357.54 443.60 355.91 442.81 C 353.55 442.01 351.30 440.98 348.97 440.12 C 343.40 438.52 337.73 437.30 332.00 436.53 C 327.33 436.46 322.66 436.46 318.00 436.53 C 312.26 437.30 306.59 438.52 301.03 440.12 Z" stroke-width="1"/>
    </g>
    <g id="#afafafff">
      <path fill="#afafaf" opacity="1.00" d="M 167.40 48.39 C 168.00 46.96 170.03 46.88 170.60 48.38 C 179.03 60.42 187.58 72.40 195.70 84.65 C 184.15 95.46 173.92 107.55 162.65 118.64 C 157.56 124.12 150.70 129.08 149.65 137.04 C 149.47 142.51 152.61 147.93 157.47 150.48 C 161.48 152.65 164.88 155.72 168.24 158.75 C 183.52 171.56 198.51 184.71 213.92 197.36 C 199.44 208.83 184.30 219.46 169.79 230.89 C 158.03 239.74 146.23 248.55 134.47 257.41 C 130.10 260.77 127.25 265.74 126.79 271.26 C 127.83 277.36 130.89 282.82 133.39 288.40 C 149.47 324.24 165.77 359.98 181.83 395.83 C 185.34 403.11 188.08 410.78 192.54 417.56 C 195.73 423.56 203.56 427.23 210.04 424.52 C 215.62 422.59 218.43 417.04 221.41 412.39 C 231.48 397.14 241.63 381.93 251.75 366.71 C 265.17 345.57 279.58 325.08 293.00 303.94 C 303.52 288.21 313.88 272.39 324.47 256.71 C 325.37 257.39 326.33 258.04 327.06 258.93 C 348.77 291.29 369.93 324.01 391.63 356.38 C 404.83 377.09 418.85 397.29 432.17 417.93 C 434.89 422.34 439.75 425.56 445.03 425.47 C 449.39 425.07 453.73 423.01 456.28 419.36 C 461.72 411.51 464.98 402.47 469.01 393.88 C 484.97 358.51 500.96 323.16 516.90 287.79 C 519.30 282.40 522.23 277.13 523.20 271.25 C 522.76 265.26 519.31 260.01 514.48 256.59 C 488.22 237.12 462.41 217.06 436.10 197.69 C 450.26 185.27 464.80 173.28 479.07 160.98 C 483.49 157.46 487.38 153.22 492.43 150.54 C 498.53 147.40 502.26 139.43 499.23 132.98 C 496.82 127.13 491.57 123.25 487.41 118.70 C 476.12 107.60 465.89 95.48 454.30 84.67 C 462.36 72.42 470.95 60.51 479.32 48.46 C 479.92 46.95 482.04 46.88 482.64 48.45 C 527.99 113.39 573.11 178.51 618.43 243.48 C 619.67 245.05 619.83 247.07 619.52 248.99 C 598.04 344.36 576.53 439.76 555.14 535.16 C 554.70 538.21 552.20 540.14 550.15 542.15 C 546.53 545.52 543.23 549.23 539.38 552.35 C 533.51 557.49 528.22 563.26 522.49 568.55 C 515.45 574.47 509.23 581.28 502.50 587.54 C 495.45 593.45 489.24 600.27 482.52 606.52 C 475.46 612.43 469.25 619.25 462.52 625.52 C 455.44 631.43 449.22 638.29 442.47 644.57 C 435.39 650.46 429.20 657.31 422.46 663.57 C 415.76 669.12 409.91 675.60 403.53 681.51 C 396.46 687.43 390.24 694.28 383.49 700.55 C 376.45 706.44 370.26 713.24 363.55 719.49 C 356.46 725.42 350.23 732.27 343.47 738.56 C 336.94 743.97 331.24 750.29 324.99 756.01 C 318.74 750.26 313.01 743.94 306.47 738.51 C 299.75 732.26 293.56 725.44 286.52 719.55 C 279.75 713.27 273.52 706.41 266.43 700.47 C 259.72 694.22 253.51 687.42 246.47 681.52 C 240.09 675.60 234.23 669.11 227.51 663.55 C 222.01 658.39 216.79 652.92 211.26 647.79 C 204.18 641.88 198.01 634.99 191.22 628.76 C 184.17 622.87 178.02 616.01 171.26 609.80 C 162.75 602.66 155.51 594.16 146.97 587.06 C 139.98 580.35 133.26 573.35 125.89 567.05 C 116.12 557.07 105.48 548.02 95.69 538.06 C 73.70 442.06 52.52 345.87 30.60 249.85 C 30.23 247.70 30.08 245.31 31.56 243.50 C 76.89 178.51 122.03 113.36 167.40 48.39 M 316.18 418.10 C 294.92 419.83 274.52 429.43 259.09 444.07 C 236.15 465.43 224.12 497.76 226.96 528.88 C 229.42 559.82 246.33 589.51 272.40 606.55 C 287.04 616.37 304.49 621.68 322.05 622.51 C 348.46 623.16 375.14 612.60 393.43 593.42 C 413.53 573.58 424.09 545.03 423.51 516.95 C 422.69 501.48 419.18 486.00 411.95 472.21 C 397.34 442.83 367.44 420.97 334.49 418.20 C 328.45 417.18 322.22 417.16 316.18 418.10 Z" stroke-width="1"/>
    </g>
    <g id="#ffffffff">
      <path fill="#ffffff" opacity="1.00" d="M 301.03 440.12 C 306.59 438.52 312.26 437.30 318.00 436.53 C 322.66 436.46 327.33 436.46 332.00 436.53 C 337.73 437.30 343.40 438.52 348.97 440.12 C 351.30 440.98 353.55 442.01 355.91 442.81 C 357.54 443.60 359.18 444.39 360.82 445.20 C 362.84 446.46 364.86 447.71 366.94 448.87 C 367.93 449.56 368.95 450.23 369.97 450.90 C 375.45 455.11 380.45 459.86 385.10 464.98 C 393.77 476.07 400.29 489.01 402.94 502.90 C 403.70 505.65 403.32 508.59 404.39 511.29 C 404.57 517.09 404.57 522.90 404.39 528.71 C 403.22 533.09 403.25 537.72 401.82 542.08 C 401.53 543.37 401.29 544.68 400.89 545.96 C 399.27 550.26 397.46 554.50 395.79 558.79 C 389.38 570.54 380.86 581.22 369.98 589.11 C 368.97 589.76 367.96 590.41 366.97 591.08 C 365.94 591.77 364.91 592.47 363.91 593.19 C 361.55 594.41 359.18 595.62 356.81 596.80 C 354.20 597.80 351.62 598.89 349.00 599.87 C 331.10 605.65 311.29 604.69 294.04 597.19 C 291.74 596.06 289.45 594.93 287.16 593.80 C 285.77 592.91 284.40 592.00 283.03 591.11 C 282.03 590.42 281.03 589.76 280.02 589.10 C 269.14 581.23 260.63 570.54 254.22 558.81 C 252.17 553.24 249.36 547.92 248.15 542.07 C 246.78 537.71 246.76 533.08 245.61 528.70 C 245.43 522.90 245.43 517.09 245.61 511.29 C 246.37 509.31 246.42 507.20 246.64 505.14 C 249.04 490.43 255.75 476.66 264.90 464.98 C 269.55 459.86 274.55 455.11 280.03 450.89 C 281.04 450.23 282.05 449.56 283.06 448.88 C 285.14 447.71 287.17 446.46 289.18 445.18 C 293.01 443.23 297.01 441.66 301.03 440.12 Z" stroke-width="1"/>
      <path fill="#ffffff" opacity="1.00" d="M 102.92 586.46 C 103.59 586.48 104.25 586.50 104.92 586.54 C 108.06 589.89 111.41 593.05 114.74 596.23 C 121.83 602.10 127.97 608.99 134.74 615.22 C 143.28 622.30 150.45 630.88 159.04 637.92 C 164.62 643.39 170.21 648.87 175.84 654.31 C 175.72 654.73 175.50 655.58 175.38 656.00 C 174.19 656.67 173.02 657.38 171.87 658.12 C 170.19 659.06 168.55 660.06 166.93 661.10 C 164.19 662.65 161.52 664.35 158.92 666.13 C 157.24 667.07 155.58 668.04 153.96 669.07 C 152.93 669.74 151.91 670.42 150.91 671.13 C 149.21 672.07 147.54 673.05 145.92 674.13 C 143.58 675.45 141.20 676.68 138.87 678.02 C 136.55 679.33 134.92 681.44 133.89 683.86 C 132.71 687.61 134.75 691.20 134.52 694.96 C 134.46 737.09 134.49 779.22 134.67 821.34 C 134.39 821.80 133.82 822.72 133.53 823.18 C 131.77 820.05 129.91 816.98 128.20 813.83 C 126.86 811.13 125.54 808.41 123.85 805.91 C 122.05 802.49 120.34 799.03 118.23 795.79 C 114.39 788.38 110.41 781.04 106.23 773.82 C 104.51 770.47 102.93 767.03 100.85 763.89 C 98.79 759.77 96.45 755.82 94.20 751.81 C 92.71 748.72 91.09 745.69 89.24 742.81 C 87.35 739.07 85.50 735.31 83.22 731.79 C 81.50 728.45 79.92 725.02 77.84 721.88 C 76.04 718.47 74.32 715.02 72.23 711.78 C 70.10 707.35 67.63 703.11 65.21 698.85 C 63.81 696.02 62.50 693.11 60.49 690.66 C 60.51 689.60 60.41 688.54 60.62 687.52 C 64.34 678.27 68.35 669.13 72.22 659.94 C 72.50 659.02 72.82 658.12 73.19 657.24 C 73.87 655.80 74.54 654.36 75.25 652.94 C 75.53 652.03 75.85 651.13 76.19 650.25 C 77.18 648.23 78.10 646.17 78.82 644.04 C 79.64 642.28 80.48 640.54 81.33 638.81 C 81.43 638.39 81.61 637.55 81.70 637.12 C 82.66 635.21 83.42 633.22 84.25 631.26 C 87.73 623.55 90.71 615.63 94.19 607.92 C 96.95 600.70 100.59 593.83 102.92 586.46 Z" stroke-width="1"/>
      <path fill="#ffffff" opacity="1.00" d="M 545.10 586.51 C 545.76 586.50 546.42 586.49 547.09 586.49 C 548.45 590.84 550.18 595.07 552.32 599.10 C 552.41 599.53 552.58 600.39 552.66 600.82 C 554.93 605.45 556.92 610.21 558.79 615.02 C 559.29 616.04 559.81 617.06 560.35 618.08 C 560.42 618.51 560.56 619.36 560.63 619.79 C 561.36 621.25 562.09 622.73 562.80 624.22 C 565.44 630.56 567.99 636.94 570.77 643.22 C 571.82 645.91 572.90 648.60 574.33 651.14 C 574.41 651.58 574.57 652.45 574.65 652.89 C 575.37 654.32 576.09 655.77 576.78 657.24 C 577.57 659.22 578.33 661.22 579.30 663.14 C 579.39 663.55 579.57 664.36 579.66 664.77 C 581.59 668.49 583.01 672.45 584.75 676.27 C 585.58 678.23 586.34 680.22 587.30 682.13 C 587.39 682.54 587.58 683.34 587.68 683.75 C 588.87 685.87 589.92 688.14 589.51 690.66 C 587.05 693.70 585.59 697.36 583.77 700.80 C 581.90 703.69 580.29 706.74 578.78 709.85 C 576.54 713.84 574.21 717.78 572.16 721.88 C 566.57 731.78 561.15 741.80 555.78 751.83 C 553.54 755.83 551.21 759.77 549.16 763.88 C 547.07 767.03 545.49 770.47 543.77 773.82 C 541.49 777.32 539.65 781.08 537.77 784.80 C 535.91 787.70 534.30 790.73 532.75 793.81 C 532.23 794.82 531.69 795.82 531.17 796.85 C 529.89 798.75 528.81 800.78 527.75 802.81 C 527.23 803.83 526.69 804.84 526.17 805.88 C 524.06 809.01 522.50 812.46 520.77 815.81 C 519.26 818.21 517.89 820.68 516.50 823.16 C 516.21 822.68 515.64 821.71 515.35 821.23 C 515.48 779.17 515.56 737.10 515.48 695.03 C 515.23 691.25 517.29 687.63 516.10 683.87 C 515.08 681.43 513.44 679.32 511.12 678.02 C 508.79 676.68 506.41 675.45 504.07 674.13 C 502.46 673.05 500.78 672.07 499.09 671.13 C 498.08 670.43 497.06 669.75 496.05 669.08 C 494.41 668.04 492.73 667.05 491.04 666.11 C 488.45 664.33 485.80 662.64 483.07 661.10 C 481.43 660.06 479.78 659.05 478.10 658.10 C 476.95 657.37 475.78 656.66 474.61 656.00 C 474.50 655.57 474.28 654.72 474.17 654.29 C 479.80 648.87 485.37 643.39 490.96 637.92 C 499.54 630.90 506.70 622.32 515.24 615.25 C 520.56 610.21 525.72 605.01 530.97 599.91 C 535.98 595.78 540.61 591.20 545.10 586.51 Z" stroke-width="1"/>
    </g>
  </g>
</svg>